<svg version="1.1" xmlns="http://www.w3.org/2000/svg" style="display: block;" viewBox="0 0 2048 2048" width="1254" height="1254" preserveAspectRatio="none">
<path transform="translate(0,0)" fill="rgb(0,0,0)" d="M 1172.58 545.405 C 1196.68 543.633 1215.18 548.333 1234.65 563.048 C 1249.03 563.952 1256.72 567.096 1270.06 572.483 C 1257.84 598.014 1263.12 628.032 1279.28 650.717 C 1299.21 678.672 1342.1 680.492 1346.02 639.775 C 1355.21 648.737 1360.79 654.401 1366.04 666.175 C 1392.74 679.263 1401.76 697.744 1408.43 725.582 L 1393.47 721.769 C 1411.75 730.679 1420.11 736.025 1432.32 752.927 C 1429.36 752.176 1426.19 751.404 1423.19 750.868 C 1403.6 747.442 1383.46 751.862 1367.11 763.172 C 1353.25 772.864 1344.55 785.043 1341.71 801.868 C 1336.51 796.643 1331.13 790.07 1326.4 784.386 C 1315.97 771.845 1309.51 772.601 1294.68 773.208 C 1259.89 794.077 1244.28 807.101 1203.64 820.243 L 1207.05 818.512 C 1200.33 829.239 1196.59 832.169 1186.78 839.933 C 1170.47 836.744 1149.51 834.292 1134.22 830.387 C 1122.26 827.335 1104.43 816.714 1091.8 811.516 C 1098.25 815.84 1104.64 820.233 1110.99 824.694 C 1080.35 825.381 1040.4 833.841 1014.76 851.009 C 1072.98 833.062 1104.39 831.943 1163.7 841.611 C 1189.98 845.72 1215.92 851.731 1241.33 859.599 C 1218.37 868.674 1199.55 876.473 1179.99 892.348 C 1144.75 920.943 1120.22 956.603 1114.96 1002.11 C 1097.23 995.063 1079.55 984.822 1061.45 978.773 C 1032.78 969.192 1003.91 960.023 975.174 950.545 C 990.486 959.888 1014.34 971.757 1030.74 979.213 C 1039.85 983.221 1048.15 986.869 1057.02 991.456 C 1041.57 1004.18 1025.88 1016.66 1008.54 1026.83 C 1006.23 1028.18 990.116 1050.27 986.992 1054.37 C 978.195 1065.91 969.552 1075.58 959.432 1086.24 C 938.628 1039.11 881.187 1011.05 832.772 1002.87 C 868.196 964.84 901.928 954.936 951.628 951.299 C 931.257 947.135 903.532 948.604 883.16 953.644 C 889.78 944.007 895.313 936.761 903.586 928.355 C 910.886 920.937 918.549 914.804 924.321 906.15 C 927.845 912.56 929.824 916.982 935.853 921.32 L 936.539 921.105 C 920.267 890.94 926.133 863.062 945.082 835.381 C 948.644 830.177 953.861 826.611 956.798 821.447 L 955.747 818.181 C 958.282 812.89 968.814 809.709 974.107 807.248 C 1008.96 791.042 1042.16 795.075 1078.12 802.874 C 1041.31 785.889 1018.97 782.496 979.915 790.103 C 995.16 763.519 999.907 767.548 1021.94 748.5 C 1027.65 743.566 1043.92 725.301 1051.18 718.153 C 1050.02 724.091 1049.95 729.052 1049.66 735.061 C 1062.61 698.551 1068.16 684.215 1093.36 654.214 C 1133.95 648.001 1160.42 633.788 1180.99 596.434 C 1179.5 595.582 1179.79 596.316 1178.2 598.219 C 1153.16 628.088 1119.42 639.613 1081.67 642.731 C 1083.29 640.772 1084.88 638.789 1086.45 636.783 C 1108.99 607.676 1096.52 575.521 1070.2 555.158 C 1085.08 554.037 1094.97 553.518 1109.94 555.26 C 1114.69 555.813 1133.56 559.824 1135.69 559.695 C 1133.4 557.638 1128.15 556.316 1124.9 555.209 C 1139.26 550.72 1157.85 546.998 1172.58 545.405 z M 1178.52 755.065 C 1174.78 755.291 1160.96 756.989 1158.42 758.703 C 1165.63 759.613 1173.95 758.873 1181.31 758.476 C 1232.55 754.454 1265.12 745.44 1307.74 716.494 C 1313.96 711.975 1320.72 707.375 1326.14 701.987 C 1324 702.174 1308.03 711.379 1304.88 713.115 C 1262.81 732.818 1224.06 746.247 1178.52 755.065 z"/>
<path transform="translate(0,0)" fill="rgb(233,232,234)" fill-opacity="0.0156863" d="M 1304.88 713.115 C 1308.03 711.379 1324 702.174 1326.14 701.987 C 1320.72 707.375 1313.96 711.975 1307.74 716.494 L 1304.88 713.115 z"/>
<path transform="translate(0,0)" fill="rgb(233,232,234)" fill-opacity="0.0196078" d="M 1181.31 758.476 C 1173.95 758.873 1165.63 759.613 1158.42 758.703 C 1160.96 756.989 1174.78 755.291 1178.52 755.065 L 1181.31 758.476 z"/>
<path transform="translate(0,0)" fill="rgb(0,0,0)" d="M 1488.41 1496.92 C 1516.19 1496.78 1543.97 1496.85 1571.76 1497.14 C 1562.69 1509.38 1550.99 1522.09 1540.84 1533.49 C 1510.04 1566.66 1482.24 1592.34 1445.65 1619.43 C 1314.49 1717.52 1149.78 1759.57 987.659 1736.37 C 851.43 1715.52 725.789 1650.6 629.972 1551.54 C 613.418 1534.62 595.771 1515.98 581.701 1496.95 L 679.51 1496.95 C 685.574 1503.4 691.727 1509.77 697.968 1516.05 C 796.33 1616.33 930.41 1673.58 1070.87 1675.25 C 1230.07 1675.75 1376.25 1608.35 1488.41 1496.92 z"/>
<path transform="translate(0,0)" fill="rgb(232,1,3)" d="M 552.334 626.107 C 559.282 615.084 566.374 604.152 573.609 593.315 C 668.672 452.583 823.6 357.352 989.53 325.691 C 1162.77 293.737 1341.65 330.761 1487.97 428.861 L 1486.72 431.256 C 1350.44 362.426 1201.08 334.234 1050.01 362.054 C 882.615 391.207 733.906 486.29 637.2 626.004 C 609.87 626.7 579.878 626.093 552.334 626.107 z"/>
<path transform="translate(0,0)" fill="rgb(0,0,0)" d="M 1242.73 861.916 C 1265.88 872.251 1315.6 884.17 1334.61 900.431 C 1346.51 911.825 1348.38 940.628 1342.42 955.134 C 1330.38 984.452 1328.1 1014.12 1318.55 1043.9 C 1305.34 1085.12 1287.03 1116.19 1284.77 1160.59 C 1283.28 1161.05 1281.8 1161.56 1280.34 1162.1 C 1274.09 1164.48 1271.46 1167.54 1268.78 1173.49 L 1265.6 1180.52 C 1256.42 1185.34 1241.82 1195.83 1231.42 1192.19 C 1225.77 1190.21 1224.04 1183.93 1221.92 1178.87 C 1231.31 1140.19 1234.85 1114.98 1233.96 1074.67 C 1227.82 1041.93 1231.35 1013.57 1247.25 984.106 C 1256.86 966.283 1259.76 960.299 1277.73 949.719 C 1261.81 951.065 1242.27 950.125 1225.64 950.406 C 1236.48 952.298 1246.19 953.765 1256.61 957.386 C 1252.27 962.921 1250.5 966.515 1247.19 972.72 C 1219.44 972.061 1202.64 977.962 1176.93 979.219 C 1161.91 991.226 1148.84 1001.3 1132.68 1011.73 C 1134.08 950.611 1187.6 884.302 1242.73 861.916 z"/>
<path transform="translate(0,0)" fill="rgb(0,0,0)" d="M 832.057 1017.82 C 862.033 1017.62 917.74 1046.63 936.294 1071.07 C 912.621 1089.46 883.486 1106.21 857.795 1121.55 C 850.38 1125.98 836.146 1136.68 828.667 1139.27 C 811.619 1145.18 788.772 1142.54 770.996 1145.97 C 751.286 1149.02 730.933 1159.82 711.521 1163.08 C 676.498 1168.96 644.731 1173.25 610.281 1182.97 C 592.27 1189.56 579.056 1194.49 561.324 1202.44 C 556.389 1189.71 555.702 1188.23 542.462 1185.25 C 536.625 1173.12 537.756 1162.74 550.821 1157.31 C 580.91 1144.8 611.852 1135.32 639.915 1118.06 C 660.128 1104.67 675.23 1089.19 699.267 1082.46 C 710.912 1079.2 756.09 1074.13 765.348 1079.18 C 765.747 1082.3 763.597 1085.18 761.977 1088.48 C 767.214 1083.77 771.001 1079.46 776.771 1074.88 C 782.937 1069.98 796.397 1061.88 800.957 1056.53 C 812.503 1042.98 819.066 1030.93 832.057 1017.82 z"/>
<path transform="translate(0,0)" fill="rgb(0,0,0)" d="M 1694 862.214 C 1713.18 860.961 1734.84 870.747 1753.42 875.166 C 1765.01 878.104 1776.09 880.161 1787.32 884.43 C 1803.13 890.446 1813.42 912.051 1809.4 928.118 C 1804.88 946.155 1797.7 964.449 1793.16 982.65 C 1786.15 1010.81 1772.23 1035.57 1738.74 1029.1 C 1718.49 1023.44 1674.32 1012.25 1656.84 1004.53 C 1630.03 992.688 1644.59 950.227 1618.38 924.807 C 1619.26 920.221 1620.11 917.431 1621.49 912.939 C 1659.71 905.66 1657.93 870.961 1694 862.214 z"/>
<path transform="translate(0,0)" fill="rgb(232,1,3)" d="M 117.086 1296.23 C 131.813 1295.98 146.976 1296.13 161.741 1296.08 L 162.158 1378.94 C 167.225 1370.57 176.251 1358.46 182.041 1350.27 C 194.889 1331.9 208.222 1313.87 222.026 1296.21 C 236.118 1295.72 253.23 1296.24 267.558 1296.29 C 249.965 1348.19 229.58 1402.34 210.885 1453.99 C 198.622 1454.34 185.32 1454.14 172.977 1454.18 C 177.822 1441.22 182.415 1427.75 187.041 1414.67 C 191.908 1401.54 196.541 1387.55 201.173 1374.28 C 183.921 1396.73 167.605 1419.92 150.435 1442.36 C 144.173 1442.88 135.947 1442.71 129.502 1442.74 C 129.931 1418.39 128.982 1397.13 127.992 1372.8 C 121.071 1396.41 107.686 1429.47 99.3219 1454.17 C 86.6701 1454.43 74.0147 1454.43 61.3626 1454.2 L 100.933 1342.48 C 105.942 1328.26 111.632 1309.62 117.086 1296.23 z"/>
<path transform="translate(0,0)" fill="rgb(0,0,0)" d="M 1054.63 560.54 C 1104.86 577.97 1079.49 649.353 1056.96 641.129 L 1053.64 636.952 C 1030.75 635.31 1020.14 629.637 1001.56 627.644 C 1006.94 630.438 1009.4 631.384 1014.99 633.376 C 984.628 653.55 969.33 661.754 933.745 671.126 C 915.165 676.019 889.244 693.176 873.84 705.29 C 867.284 728.231 861.988 737.684 846.235 755.901 C 842.758 759.922 838.857 779.248 831.657 773.647 C 820.205 764.067 840.187 747.248 836.754 738.185 C 829.132 733.74 810.063 745.472 803.327 750.018 C 794.776 755.789 785.429 771.922 773.883 770.879 L 772.389 769.537 C 772.31 759.354 802.954 735.886 810.668 727.92 C 798.532 733.63 789.566 742.534 780.588 752.121 C 775.063 758.021 769.694 765.347 761.017 765.341 L 758.872 764.169 C 759.352 757.998 768.343 753.903 766.62 750.842 L 763.511 749.159 C 763.23 744.867 774.439 736.668 778.092 733.503 C 774.248 733.447 774.277 734.064 771.548 732.334 C 773.703 721.16 801.17 710.848 808.256 702.263 C 808.763 701.649 810.624 699.897 811.212 699.292 C 811.961 699.128 813.427 698.188 814.19 697.758 C 838.916 685.786 862.342 671.294 884.094 654.515 C 901.915 640.629 918.764 625.268 937.456 612.593 C 949.939 604.128 962.582 598.174 976.077 591.788 C 981.042 589.439 989.322 582.709 993.752 581.478 C 1001.97 579.195 1012.43 579.009 1021.16 577.653 C 1031.21 576.091 1041.64 572.857 1051.45 571.29 C 1052.47 567.73 1053.44 564.037 1054.63 560.54 z"/>
<path transform="translate(0,0)" fill="rgb(0,0,0)" d="M 1367.37 516.39 C 1374.42 514.828 1401.87 532.905 1414 535.387 C 1427.32 538.115 1423.53 538.324 1438.87 538.133 C 1439.07 543.507 1438.85 549.605 1438.78 555.038 C 1436.33 557.55 1432.63 560.208 1429.79 562.402 C 1431.16 569.191 1438.77 592.279 1432.02 596.218 C 1412.21 593.274 1423.46 603.309 1417.02 609.875 C 1413.32 610.616 1409.28 609.195 1405.51 608.28 C 1405.2 611.547 1411.14 611.285 1411.86 616.408 C 1410.37 619.566 1406.47 621.351 1403.31 623.28 C 1402.62 627.157 1401.88 633.39 1399.32 636.254 C 1385.25 652.004 1351.69 619.616 1341.45 610.431 C 1344.23 614.899 1353.2 624.606 1353.41 628.368 C 1342.48 638.053 1338.53 639.58 1325.33 646.107 C 1331.25 645.133 1336.36 642.966 1341.97 640.868 C 1336.41 666.296 1312.68 665.688 1295.98 650.341 C 1281.8 636.357 1274.63 616.497 1274.11 596.882 C 1273.49 573.481 1282.46 579.032 1294.65 566.213 L 1295.72 565.068 C 1297.48 553.973 1298.46 546.21 1299.46 535.056 C 1319.83 523.067 1344.39 519.353 1367.37 516.39 z"/>
<path transform="translate(0,0)" fill="rgb(232,1,3)" d="M 664.658 1296.29 C 679.958 1295.46 696.42 1296.09 711.554 1295.85 C 747.023 1295.29 742.972 1314.3 732.922 1338.91 C 719.79 1371.06 711.531 1406.08 695.836 1437 C 691.245 1446.04 677.45 1451.7 668.154 1453.94 C 649.429 1454.96 581.396 1463.15 593.816 1430.54 C 608.507 1391.96 619.2 1350.44 636.851 1313.16 C 640.901 1304.6 655.775 1298.21 664.658 1296.29 z M 635.12 1421 C 644.606 1421.26 654.098 1421.25 663.583 1420.97 C 669.35 1413.76 694.18 1341.46 697.995 1329.25 C 687.764 1328.93 679.587 1328.86 669.322 1329.15 C 664.208 1336.3 638.316 1409.66 635.12 1421 z"/>
<path transform="translate(0,0)" fill="rgb(0,0,0)" d="M 1406.52 758.231 C 1414.26 757.893 1433.38 757.701 1437.04 765.482 C 1436.8 766.024 1434.96 770.06 1435.16 770.367 C 1440.81 779.067 1445.85 786.544 1449.9 796.127 C 1468.01 802.217 1487.6 807.525 1501.13 821.872 C 1506.39 827.445 1513.98 837.842 1520.07 842.212 C 1532.94 851.442 1545.01 855.902 1557.81 865.878 C 1566.83 866.162 1576.56 867.35 1584.88 871.164 C 1597.48 876.938 1599.54 885.713 1603.86 897.672 C 1598.64 905.009 1595.06 917.437 1587.57 919.279 C 1575.21 915.281 1582.18 903.568 1582.9 896.559 C 1581.33 894.295 1580.9 892.989 1578.38 892.164 L 1577.09 893.759 C 1576.61 898.395 1576.87 901.803 1577.5 906.342 C 1579.36 919.734 1581.86 923.311 1595.75 919.605 C 1597.41 926.428 1600.04 936.348 1592.92 940.649 C 1583.45 941.2 1582.47 935.653 1577.08 935.204 C 1572.2 937.672 1571.23 938.399 1565.85 938.116 C 1556.56 930.128 1539.26 934.384 1531.8 924.852 C 1526.33 917.854 1530.66 882.614 1545.16 887.721 C 1546.13 890.668 1545.91 890.738 1548.1 892.836 C 1550.69 889.982 1550.98 889.94 1554.54 888.152 L 1555.47 887.693 L 1555.58 886.67 L 1553.6 885.598 C 1535.59 887.759 1523.68 870.165 1517.66 893.947 C 1510.23 890.892 1501.18 887.129 1493.51 884.873 C 1468.08 877.391 1441.88 872.832 1422.39 853.153 C 1414.49 845.175 1410.65 834.848 1402.93 826.629 C 1402.51 827.702 1402.44 828.759 1402.32 829.9 C 1398.34 830.15 1379.16 816.595 1375.38 813.833 C 1368.24 814.013 1361.03 814.871 1354.63 811.939 C 1351.07 805.554 1357.09 791.252 1361.08 785.797 C 1372.07 770.755 1388.36 761.543 1406.52 758.231 z"/>
<path transform="translate(0,0)" fill="rgb(0,0,0)" d="M 1406.85 1296.05 C 1432.55 1296.01 1461.67 1294.65 1486.64 1297.04 C 1512.31 1299.5 1496.67 1333.86 1492.03 1346.42 C 1486.08 1362.53 1483.59 1365.71 1468.93 1373.89 C 1483.87 1386.01 1473.35 1398.55 1468.99 1414.57 C 1465.49 1427.42 1459.79 1439.78 1448.5 1447.57 C 1444.79 1449.84 1438.29 1452.87 1434.13 1453.21 C 1407.98 1455.33 1377.43 1454.32 1351.11 1454.2 L 1406.85 1296.05 z M 1400.42 1421.36 C 1409.54 1421.74 1417.97 1422.08 1427.08 1421.04 C 1432 1416.35 1437.33 1398.07 1438.91 1391.22 C 1428.61 1390.56 1421.02 1390.64 1410.79 1390.87 C 1407.24 1401 1403.78 1411.16 1400.42 1421.36 z M 1422.09 1359.76 C 1431.5 1359.8 1438.82 1359.94 1448.22 1358.85 C 1451.81 1355.03 1464.03 1331.13 1454.45 1328.83 C 1449.58 1327.66 1438.25 1328.72 1432.71 1328.9 C 1429.26 1339.61 1426.1 1349.23 1422.09 1359.76 z"/>
<path transform="translate(0,0)" fill="rgb(0,0,0)" d="M 669.673 625.967 C 676.469 615.419 688.322 600.935 696.463 591.193 C 742.977 535.867 799.088 489.385 862.103 453.978 C 998.773 375.714 1170.54 352.016 1322.72 393.556 L 1318.74 395.353 C 1262.87 382.846 1180.2 383.361 1123.94 391.284 C 957.753 414.688 810.863 491.72 708.517 625.917 C 695.571 626.192 682.62 626.209 669.673 625.967 z"/>
<path transform="translate(0,0)" fill="rgb(0,0,0)" d="M 1192.07 1239.48 C 1191.45 1221.49 1195.72 1216.1 1202.46 1200.03 C 1204.98 1194.03 1198.58 1185.4 1210.52 1181.24 C 1223.24 1181.86 1216.77 1202.43 1231.5 1202.26 C 1247.05 1202.08 1264.23 1190.29 1279.06 1184.76 C 1277.23 1181.09 1272.26 1182.95 1274.72 1175.87 C 1277.36 1168.3 1287.82 1161.41 1295.73 1164.43 C 1303.71 1167.47 1304.54 1177.88 1305.64 1184.96 C 1314.15 1184.79 1316.56 1183.59 1322.74 1188.86 L 1323.2 1190.74 C 1319.41 1195.46 1310.06 1193.19 1305.32 1195.82 C 1308.56 1196.54 1308.96 1196.22 1312.31 1195.97 L 1313.79 1197 C 1321.13 1202.1 1333.59 1205.05 1334.65 1212.43 L 1342.35 1215.24 C 1345.82 1216.49 1347.48 1217.41 1349.68 1220.35 C 1350.48 1221.41 1351.78 1223.77 1352.76 1224.53 C 1367.01 1235.62 1415.8 1226.3 1410.66 1256.47 C 1410.04 1260.07 1407.92 1263.36 1404.75 1265.24 C 1396.48 1270.16 1289.49 1265.93 1271.66 1265.93 C 1256.44 1265.93 1202.27 1269.54 1191.58 1266.27 C 1188.86 1265.44 1186.5 1264.03 1185.21 1261.38 C 1183.51 1257.89 1182.93 1252.08 1184.5 1248.44 C 1185.6 1245.9 1186.66 1245.54 1189.01 1244.48 C 1197.31 1245.08 1203.4 1248.63 1211.22 1249.02 C 1224.51 1249.67 1242.91 1247.59 1255.71 1249.66 C 1276.43 1253.01 1290.36 1257.09 1311.8 1258.1 C 1317.29 1259.27 1362.67 1259.72 1365.15 1257.98 C 1362.49 1256.7 1362.71 1257.1 1359.47 1257.18 L 1358.42 1257.22 C 1340.9 1256.1 1321.56 1255.32 1304.33 1252.99 C 1285.62 1250.47 1267.14 1245.23 1248.13 1243.55 C 1228.38 1241.8 1211.48 1244.58 1192.07 1239.48 z M 1291.09 1243.25 C 1298.11 1237.52 1300.82 1235.47 1305.03 1227.14 C 1303.48 1224.61 1301.83 1221.12 1299.55 1219.75 L 1299.44 1220.86 C 1297.86 1235.37 1288.54 1232.86 1277.72 1230.84 C 1263.38 1228.16 1241.16 1217.41 1227.21 1216.95 C 1242.93 1224.28 1275.34 1240.69 1291.09 1243.25 z"/>
<path transform="translate(0,0)" fill="rgb(232,1,3)" d="M 790.945 917.448 C 802.85 917.219 814.757 917.104 826.665 917.102 L 802.542 953.285 C 701.075 952.726 599.701 947.102 498.106 946.828 C 409.217 946.588 319.427 939.668 230.513 937.863 C 223.086 937.258 186.526 936.729 182.748 935.259 C 192.542 933.907 203.616 934.022 213.6 933.634 L 264.78 931.702 C 323.236 929.584 381.712 928.087 440.199 927.209 C 484.678 926.494 528.442 923.527 572.684 922.216 L 790.945 917.448 z"/>
<path transform="translate(0,0)" fill="rgb(0,0,0)" d="M 769.006 1296.06 C 783.056 1295.77 844.307 1293.75 854.232 1298.59 C 858.486 1300.66 862.018 1304.21 863.444 1308.79 C 866.879 1319.83 844.724 1376.75 837.985 1388.49 C 821.431 1417.33 791.22 1401.45 768.474 1407.68 L 767.139 1410.2 C 761.681 1424.13 756.75 1439.62 751.379 1453.96 C 738.781 1454.2 726.18 1454.22 713.581 1454.03 C 718.666 1437.09 726.359 1417.1 732.397 1400.22 C 745.018 1365.65 757.222 1330.92 769.006 1296.06 z M 780.199 1373.94 C 788.103 1373.98 797.379 1374.27 805.172 1373.95 C 810.836 1368 819.776 1339.11 822.25 1329.76 C 812.527 1329.02 805.3 1329.13 795.604 1329.31 C 790.154 1344.07 785.018 1358.95 780.199 1373.94 z"/>
<path transform="translate(0,0)" fill="rgb(232,1,3)" d="M 324.503 1296.08 L 371.781 1296.1 C 371.155 1311.84 367.308 1338.63 365.339 1354.52 C 361.065 1387.64 357.179 1420.82 353.682 1454.03 C 341.133 1454.21 328.332 1454.1 315.76 1454.13 C 316.731 1445.44 317.853 1436.77 319.125 1428.12 C 308.969 1427.91 289.121 1427.18 279.649 1428.27 L 278.148 1430.19 L 263.334 1453.95 C 250.508 1454.29 236.717 1454.09 223.816 1454.13 C 226.159 1449.53 233.124 1439.28 236.105 1434.58 L 260.452 1396.19 C 280.673 1364.29 303.076 1326.8 324.503 1296.08 z M 299.493 1395.9 C 307.59 1395.83 316.035 1395.62 324.099 1395.7 C 325.302 1387.73 333.227 1344.44 332.38 1339.74 C 328.301 1346.49 299.225 1393.05 299.493 1395.9 z"/>
<path transform="translate(0,0)" fill="rgb(232,1,3)" d="M 546.536 1296.18 C 561.8 1295.86 578.023 1296.12 593.367 1296.09 C 592.527 1309.82 589.74 1329.68 588.14 1343.61 C 583.687 1380.45 579.483 1417.31 575.527 1454.2 L 537.153 1454.22 C 538.311 1445.49 539.594 1436.78 541.002 1428.08 C 534.878 1427.96 503.037 1426.6 500.267 1429.53 L 484.834 1454.24 L 446.063 1454.25 C 463.177 1425.65 483.27 1396 500.976 1367.34 C 512.994 1347.89 533.506 1313.23 546.536 1296.18 z M 521.507 1395.79 L 546.679 1395.71 C 547.56 1388.55 554.229 1345.2 553.632 1340.8 C 550.134 1346.83 521.158 1393.09 521.507 1395.79 z"/>
<path transform="translate(0,0)" fill="rgb(0,0,0)" d="M 1559.22 1296.16 C 1574.47 1295.93 1589.72 1295.97 1604.97 1296.29 C 1604.8 1302.89 1604.31 1309.45 1603.8 1316.04 C 1600.24 1362.12 1595.17 1408.07 1591.48 1454.13 C 1579.04 1454.3 1566.3 1454.14 1553.83 1454.12 C 1554 1445.36 1555.41 1436.85 1556.62 1428.18 C 1544.91 1427.93 1532.36 1427.56 1520.64 1428.11 C 1517.26 1428.27 1517.82 1428.44 1516.13 1430.58 L 1501.79 1454.04 C 1488.96 1454.44 1476.12 1454.51 1463.29 1454.25 C 1474.7 1432.43 1495.38 1400.78 1508.69 1378.87 C 1523.47 1354.53 1543.47 1318.32 1559.22 1296.16 z M 1537.29 1395.43 C 1545.08 1395.59 1553.09 1395.87 1560.86 1395.81 C 1561.86 1388.82 1568.2 1346 1567.4 1341.74 C 1557.19 1358.42 1545.45 1376.94 1536.64 1394.33 L 1537.29 1395.43 z"/>
<path transform="translate(0,0)" fill="rgb(0,0,0)" d="M 1138.89 1296.03 C 1153.31 1295.98 1167.73 1296.02 1182.15 1296.16 C 1160.95 1319.85 1139.57 1343.39 1118.03 1366.78 C 1121.68 1388.36 1123.97 1410.52 1127.54 1432.23 C 1128.27 1439.75 1129.28 1446.79 1130.36 1454.26 C 1117 1454.54 1102.95 1454.31 1089.53 1454.28 C 1087.1 1433.85 1084.84 1413.4 1082.75 1392.93 C 1071.6 1402.84 1069.63 1406.6 1064.88 1421.01 C 1061.27 1431.96 1057.45 1443.14 1053.8 1454.12 L 1015.35 1454.39 L 1071.23 1296.14 C 1083.71 1295.83 1096.99 1296.06 1109.53 1296.07 C 1103.42 1314.8 1095.83 1335.9 1088.87 1354.27 C 1105.3 1334.64 1121.97 1315.23 1138.89 1296.03 z"/>
<path transform="translate(0,0)" fill="rgb(0,0,0)" d="M 970.412 1296.3 C 983.555 1295.25 998.043 1296.32 1011 1295.63 C 1062.26 1292.9 1045.45 1320.43 1034.65 1351.84 C 1023.17 1351.43 1009.84 1351.72 998.217 1351.7 C 999.623 1344.34 1002.31 1336.39 1004.55 1329.16 C 995.258 1328.65 985.946 1328.73 976.665 1329.38 C 972.648 1337.87 966.179 1357.09 962.918 1366.34 C 956.75 1383.84 948.978 1403.45 943.817 1420.95 C 946.33 1421.05 948.843 1421.14 951.357 1421.21 C 985.912 1422.24 969.131 1407.64 980.15 1398.38 C 983.006 1395.98 986.766 1396.58 990.25 1396.69 C 999.411 1396.49 1008.58 1396.54 1017.74 1396.82 C 997.799 1455.66 995.512 1455.06 934.33 1454.6 C 889.201 1456.43 899.611 1436.04 910.87 1405.52 C 920.666 1378.96 929.74 1350.41 939.933 1323.73 C 945.957 1307.97 954.257 1300.81 970.412 1296.3 z"/>
<path transform="translate(0,0)" fill="rgb(0,0,0)" d="M 1297.77 1296.25 C 1325.68 1295.05 1359.83 1295.95 1387.96 1296.04 L 1376.84 1329.16 L 1323.74 1329.07 C 1320.95 1338.22 1317.06 1348.91 1313.94 1358.08 L 1357.91 1358.11 C 1353.69 1368.82 1350.03 1379.73 1346.27 1390.61 C 1332.55 1391.25 1315.74 1390.85 1301.78 1390.88 C 1299.46 1399.71 1295.02 1409.74 1292.36 1419.52 L 1293.28 1420.74 C 1310.24 1420.62 1328.22 1420.19 1345.06 1421.09 C 1342.04 1432.03 1337.49 1443.54 1333.53 1454.26 C 1305.44 1454.95 1269.99 1454.93 1242.04 1454.18 C 1244.39 1446.8 1247.2 1438.86 1249.94 1431.59 C 1266.72 1387 1280.82 1340.7 1297.77 1296.25 z"/>
<path transform="translate(0,0)" fill="rgb(232,1,3)" d="M 277.773 791.663 L 503.282 780.092 C 555.703 776.865 608.155 774.17 660.63 772.007 C 684.665 770.983 712.585 769.235 736.484 769.153 C 739.689 787.371 747.522 796.828 762.098 807.053 L 464.693 800.28 C 403.363 798.338 337.978 794.818 277.03 794.073 L 277.773 791.663 z"/>
<path transform="translate(0,0)" fill="rgb(0,0,0)" d="M 636.619 1070.5 C 642.796 1070.03 650.604 1070.2 656.918 1070.18 C 641.787 1079.78 628.267 1092.01 614.618 1103.65 L 477.012 1101.62 C 432.644 1101.13 388.575 1100.86 344.185 1099.72 C 277.265 1098.02 209.644 1091.33 142.883 1089.98 C 133.666 1089.68 121.347 1089.16 112.422 1087.88 C 116.766 1086.4 150.375 1086.06 157.068 1085.83 L 341.318 1081.1 C 370.578 1080.26 399.838 1079.36 429.096 1078.46 C 498.366 1076.34 567.304 1071.95 636.619 1070.5 z"/>
<path transform="translate(0,0)" fill="rgb(0,0,0)" d="M 1894.07 984.549 C 1924.48 979.704 1953.05 1000.45 1957.85 1030.86 C 1962.66 1061.27 1941.88 1089.81 1911.46 1094.58 C 1881.1 1099.34 1852.62 1078.61 1847.82 1048.25 C 1843.02 1017.89 1863.72 989.386 1894.07 984.549 z M 1904.47 1046.5 C 1910.22 1045.76 1914.29 1040.53 1913.61 1034.78 C 1912.93 1029.03 1907.74 1024.9 1901.98 1025.52 C 1898.2 1025.93 1894.93 1028.34 1893.42 1031.83 C 1891.91 1035.31 1892.39 1039.34 1894.68 1042.38 C 1896.96 1045.42 1900.7 1046.99 1904.47 1046.5 z M 1885.37 996.828 C 1880.38 999.356 1874.64 1002.12 1876.46 1008.59 C 1879.84 1010.78 1880.69 1010.39 1885.28 1010.03 C 1889.73 1007.25 1895.66 1004.11 1891.9 998.374 C 1888.66 996.917 1888.87 996.842 1885.37 996.828 z M 1876.59 1060.84 C 1868.01 1070.44 1877.15 1078.54 1886.76 1078.99 C 1897.28 1068.67 1887.87 1061.04 1876.59 1060.84 z M 1916.39 996.655 C 1910.05 1006.92 1917.81 1010.87 1927.24 1011.77 C 1930.78 1008.48 1929.92 1010.38 1930.66 1006.25 C 1928.61 1000.21 1922.08 998.119 1916.39 996.655 z M 1921.05 1062.01 C 1915.58 1065.71 1912.1 1068.01 1914.47 1075.13 C 1917.78 1078.46 1918.78 1078.34 1923.63 1078.89 C 1928.72 1075.39 1932.9 1071.57 1930.48 1064.8 C 1926.8 1061.51 1926.26 1061.67 1921.05 1062.01 z M 1939.14 1026.46 C 1934.82 1034.26 1934.13 1043.75 1944.25 1046.95 C 1950.58 1039.52 1950.89 1028.09 1939.14 1026.46 z M 1862.42 1024.56 C 1857.96 1030.64 1854.1 1039.08 1861.42 1044.49 L 1865.13 1044.87 C 1869.85 1039 1873.89 1030.85 1866.41 1025.21 L 1862.42 1024.56 z"/>
<path transform="translate(0,0)" fill="rgb(0,0,0)" d="M 499.377 1141.02 C 505.287 1140.92 507.364 1141.77 512.88 1143.43 C 489.016 1156.76 489.921 1171.87 473.772 1189.2 C 459.174 1204.86 438.969 1212.1 430.312 1235.23 C 428.931 1238.93 427.365 1240.85 428.588 1243.78 C 438.023 1217.52 462.418 1207.37 481.121 1189.13 C 494.16 1176.18 499.405 1147.51 520.719 1145.3 C 526.483 1144.7 552.888 1144.95 557.082 1147.75 C 553.083 1158.01 538.271 1145.28 529.319 1173.48 C 531.184 1177.47 533.642 1181.72 535.782 1185.62 C 536.532 1192.96 544.428 1186.96 549.192 1190.87 C 553.763 1194.63 555.658 1203.48 557.996 1208.76 C 561.528 1216.74 546.163 1218.74 540.666 1219.93 C 536.917 1212.73 535.63 1211.1 530.539 1204.66 C 532.55 1209.89 536.094 1216.93 534.496 1222.12 C 531.758 1225.12 533.126 1224.67 529.951 1225.69 C 529.172 1224.08 528.476 1222.76 527.606 1221.2 C 518.566 1236.6 505.515 1237.73 493.894 1248.02 C 485.048 1255.86 489.121 1258.15 475.88 1266.82 C 460.821 1267.33 445.251 1267.09 430.158 1267.14 C 424.913 1267.16 419.406 1266.1 416.404 1261.44 C 412.494 1241.07 424.592 1217.47 440.777 1206.63 C 460.662 1193.31 464.807 1192.77 473.107 1169.08 C 477.254 1157.25 487.067 1145.96 499.377 1141.02 z"/>
<path transform="translate(0,0)" fill="rgb(232,1,3)" d="M 391.707 1296.27 C 405.389 1296.03 419.451 1296.14 433.167 1296.08 C 434.197 1314.17 434.812 1335.45 434.966 1353.52 C 448.381 1334.16 462.202 1315.09 476.421 1296.31 C 490.79 1296.07 505.161 1296.07 519.53 1296.32 C 503.027 1317.79 483.362 1340.04 466.184 1361.83 C 461.307 1367.92 444.233 1388.68 441.247 1394.48 C 433.026 1410.44 425.018 1436.57 418.965 1454.05 C 406.828 1454.45 393.286 1454.18 381.033 1454.17 C 386.652 1436.12 395.913 1417.69 399.737 1399.3 C 402.972 1383.75 393.745 1316.69 391.707 1296.27 z"/>
<path transform="translate(0,0)" fill="rgb(0,0,0)" d="M 751.112 994.427 C 757.297 993.775 768.193 993.932 774.728 993.83 C 766.827 1004.66 758.99 1016.17 751.277 1027.19 C 605.657 1027.08 460.046 1024.69 314.5 1020.03 C 306.181 1020.03 291.783 1019.73 283.813 1018.62 C 290.252 1017.36 324.328 1016 331.803 1015.58 C 372.851 1013.26 413.922 1011.4 455.011 1009.99 C 498.411 1008.21 540.662 1003.41 583.521 1001.35 C 639.38 998.671 695.098 997.43 751.112 994.427 z"/>
<path transform="translate(0,0)" fill="rgb(232,1,3)" d="M 852.295 850.5 C 857.333 849.913 865.513 849.939 870.864 849.821 C 863.865 860.865 855.09 873.108 847.648 884.039 C 784.363 884.409 721.076 883.914 657.805 882.556 C 577.448 881.979 497.094 880.91 416.75 879.348 L 392.411 879.214 C 401.381 876.246 476.786 872.883 490.451 871.977 C 552.584 867.48 614.746 863.379 676.932 859.674 C 735.29 856.482 793.988 854.589 852.295 850.5 z"/>
<path transform="translate(0,0)" fill="rgb(0,0,0)" d="M 1298.61 528.914 C 1298.43 517.626 1302.35 497.869 1307.94 487.941 C 1322.67 461.754 1346.95 458.79 1372.04 451.432 C 1388.11 458.136 1406.36 458.771 1422.14 469.327 C 1438.28 480.121 1440.31 490.865 1444.28 508.441 L 1442.99 512.029 C 1459.08 516.755 1479.04 524.065 1493.28 532.688 C 1470.89 527.379 1453.04 534.157 1430.23 533.046 C 1411.1 532.115 1388.74 516.997 1373.3 514.09 C 1354.06 510.468 1317.14 521.982 1298.61 528.914 z"/>
<path transform="translate(0,0)" fill="rgb(233,232,234)" d="M 1400.57 509.39 C 1416.72 506.786 1428.05 505.849 1444.28 508.441 L 1442.99 512.029 C 1428.58 509.279 1415.22 510.053 1400.57 509.39 z"/>
<path transform="translate(0,0)" fill="rgb(232,1,3)" d="M 712.932 1497.18 L 750.353 1497.06 C 756.268 1501.68 764.381 1509.79 770.325 1515.05 C 782.039 1525.48 794.245 1535.34 806.9 1544.61 C 883.123 1600.53 966.65 1634.21 1061.23 1643.04 C 1084.85 1645.25 1108.17 1645.15 1131.85 1644.92 C 1136.22 1645.25 1141.68 1644.69 1144.03 1647.14 C 1131.01 1651.9 1080.52 1653.9 1066.03 1653.56 C 932.244 1650.36 805.217 1594.1 712.932 1497.18 z"/>
<path transform="translate(0,0)" fill="rgb(0,0,0)" d="M 1197.73 1296.03 C 1210.63 1296 1223.34 1295.89 1236.24 1296.39 C 1225.13 1334.3 1205.49 1382.24 1192.22 1420.84 C 1207.69 1420.75 1224.14 1420.36 1239.51 1421.18 C 1235.59 1431.68 1231.82 1443.5 1228.16 1454.19 C 1199.77 1454.52 1170.78 1454.29 1142.34 1454.25 C 1148.42 1439.85 1155.8 1416.42 1161.18 1401.19 C 1173.66 1366.24 1185.84 1331.19 1197.73 1296.03 z"/>
<path transform="translate(0,0)" fill="rgb(0,0,0)" d="M 1657.43 1296.27 C 1668.84 1295.86 1683.85 1295.75 1695.04 1296.64 C 1690.4 1311.96 1683.13 1330.76 1677.64 1346.08 L 1650.99 1420.66 C 1666.8 1421.19 1683.23 1420.51 1699.4 1421.01 C 1696.57 1428.87 1690.36 1447.15 1686.77 1454.13 C 1658.5 1454.34 1630.22 1454.36 1601.95 1454.19 C 1614.32 1414.9 1630.44 1375.25 1643.27 1335.97 C 1647.32 1323.61 1652.29 1307.85 1657.43 1296.27 z"/>
<path transform="translate(0,0)" fill="rgb(0,0,0)" d="M 1755.39 1296.33 C 1768.11 1295.89 1780.29 1296.07 1793.01 1296.23 C 1789.52 1309.49 1781.59 1329.42 1776.7 1342.97 C 1767.32 1368.65 1758.32 1394.46 1749.7 1420.4 C 1763.37 1421.28 1781.84 1420.69 1796.38 1421.09 C 1792.67 1432.25 1788.46 1443.13 1784.3 1454.12 C 1759.11 1455.29 1725.86 1454.24 1700 1454.12 L 1736.88 1348.01 C 1740.68 1337.04 1750.74 1305.57 1755.39 1296.33 z"/>
<path transform="translate(0,0)" fill="rgb(232,1,3)" d="M 386.207 692.182 C 483.427 684.646 580.768 678.78 678.189 674.585 C 718.353 672.816 767.81 669.353 807.272 669.681 C 789.422 682.686 788.405 684.657 773.569 700.056 C 699.372 699.845 625.631 697.668 551.628 696.991 C 516.473 696.823 481.319 696.472 446.168 695.936 C 432.428 695.71 411.882 695.889 398.495 694.929 C 393.239 693.075 390.667 694.661 386.207 692.182 z"/>
<path transform="translate(0,0)" fill="rgb(232,1,3)" d="M 1941.46 1338.26 L 1965.19 1338.1 C 1966.79 1353.71 1969.3 1379.35 1969.32 1394.69 C 1975.33 1375.16 1980.67 1357.39 1987.9 1338.26 C 1995.45 1338.02 2003.7 1338.24 2011.31 1338.3 C 2003.84 1363.41 1982.14 1425.13 1973.65 1453.33 C 1973.14 1453.62 1972.62 1453.91 1972.11 1454.2 L 1951.17 1454.18 C 1949.23 1434.97 1947.82 1415.72 1946.93 1396.43 C 1940.28 1414.62 1933.83 1435.48 1927.33 1454.2 C 1919.23 1454.59 1911.07 1454.4 1902.96 1454.31 C 1916.56 1416.29 1927.55 1375.59 1941.46 1338.26 z"/>
<path transform="translate(0,0)" fill="rgb(0,0,0)" d="M 889.431 1296.24 C 902.534 1296.03 914.688 1295.89 927.781 1296.3 C 912.11 1346.91 889.044 1402.49 872.292 1454.11 L 833.905 1454.23 C 850.314 1404.95 871.256 1344.58 889.431 1296.24 z"/>
<path transform="translate(0,0)" fill="rgb(0,0,0)" d="M 1691.28 849.196 C 1714.11 847.744 1733.72 855.713 1755.53 861.474 C 1779.29 867.753 1805.47 870.406 1819.3 893.529 C 1835.32 920.319 1820.62 946.027 1813.82 972.826 C 1803.26 1017.54 1786.07 1056.28 1731.08 1041.27 C 1716.54 1037.31 1701.43 1033.02 1687 1028.78 C 1671.99 1024.36 1657.46 1022.13 1644.74 1012.52 C 1620.42 994.17 1628.23 962.441 1615.57 938.433 C 1614.24 935.912 1613.7 935.905 1613.3 932.976 L 1614.52 932.024 C 1631.2 933.77 1630.08 981.154 1638.06 993.765 C 1648.76 1010.66 1659.81 1013.44 1677.24 1018.56 C 1735.89 1033.75 1778.07 1063.08 1800.01 980.537 C 1810.78 940.015 1837.66 890.575 1775.45 874.087 C 1749.21 867.133 1721.31 857.724 1694.51 856.277 C 1664.93 855.442 1650.96 901.256 1624.05 906.854 C 1619.83 907.808 1622.5 904.921 1620.13 903.113 C 1614.66 908.829 1611.86 925.469 1610.49 933.335 C 1606.16 932.092 1603.87 930.903 1599.74 928.963 C 1597.52 888.216 1616.66 906.581 1629.88 897.918 C 1654.77 881.615 1656.32 856.867 1691.28 849.196 z"/>
<path transform="translate(0,0)" fill="rgb(232,1,3)" d="M 1908.32 1338.06 C 1917.04 1337.94 1925.77 1338.06 1934.49 1338.39 C 1930.36 1346.84 1922.85 1359.3 1918.08 1367.78 C 1902.43 1396.38 1887.09 1425.15 1872.07 1454.09 L 1843.55 1454.61 C 1848.64 1417.45 1852.14 1375.92 1856.08 1338.31 L 1881.25 1338.05 C 1878.34 1360.72 1875.3 1389.71 1870.98 1411.65 C 1883.65 1388.18 1896.28 1362.01 1908.32 1338.06 z"/>
<path transform="translate(0,0)" fill="rgb(233,232,234)" fill-opacity="0.0117647" d="M 814.19 697.758 L 813.883 695.806 C 818.264 687.814 829.55 688.996 830.668 685.338 C 831.208 683.574 831.817 682.781 833 681.43 L 834.41 681.095 C 847.062 678 842.1 675.672 851.233 668.935 C 855.607 665.708 866.637 665.291 869.99 659.409 C 871.527 656.712 875.397 653.341 878.296 651.72 L 881.067 652.481 C 894.847 639.041 908.68 624.807 925.556 615.283 C 937.323 608.642 945.069 600.167 959.664 594.508 C 974.89 588.605 990.107 575.066 1007.96 574.988 C 1011.92 574.779 1017.05 575.994 1020.82 574.42 L 1017.13 573.34 C 1019.8 572.603 1019.09 572.756 1021.87 572.646 L 1023.74 570.024 C 1026.67 570.334 1027.58 571.186 1030.06 572.736 C 1034.29 571.812 1033.03 569.098 1034.37 569.163 C 1050.1 569.926 1042.94 564.37 1050.69 557.497 L 1052.49 557.059 L 1053.57 558.948 C 1058.59 557.898 1060.02 555.741 1063.94 558.587 C 1069.55 562.668 1081.79 575.108 1083.72 581.316 C 1084.77 586.231 1083.26 590.904 1087.29 594.657 C 1090.42 597.573 1089.59 606.607 1088.91 610.325 C 1087.12 620.076 1084.09 627.938 1077.05 635.124 C 1071.65 640.63 1066.63 649.201 1057.37 647.414 C 1054.8 646.843 1052.18 641.325 1049.44 640.491 C 1041.22 638.379 1032.7 640.228 1024.39 639.677 C 1023.81 639.639 1022.61 636.077 1019.12 637.352 C 1009.17 640.994 1001.7 650.714 991.898 654.601 C 984.731 657.444 978.43 661.336 971.415 664.422 C 944.249 672.658 916.981 680.085 893.839 697.391 C 888.099 701.684 881.556 705.195 876.414 710.648 C 876.24 713.477 876.055 716.495 875.881 719.301 C 875.872 719.449 871.346 723.266 871.255 724.375 C 869.994 739.813 860.061 743.756 851.468 754.109 C 849.517 756.461 844.235 771.191 842.377 775.366 L 840.283 773.77 C 839.088 777.303 842.248 778.212 838.913 778.985 C 828.489 781.399 825.085 774.454 822.888 766.668 C 820.332 757.609 832.388 746.448 831.477 741.839 C 809.767 747.782 798.505 764.649 780.305 775.658 C 775.798 778.384 765.665 769.411 760.245 770.71 C 757.677 771.325 756.169 769.636 754.397 767.935 C 754.351 763.888 756.858 746.111 759.923 743.096 C 761.058 741.98 765.969 737.923 767.506 736.681 L 767.364 735.31 C 765.896 719.924 775.985 719.719 786.63 711.212 C 790.422 708.182 797.885 707.154 800.186 702.545 C 802.665 698.096 806.451 696.984 811.212 699.292 C 810.624 699.897 808.763 701.649 808.256 702.263 C 801.17 710.848 773.703 721.16 771.548 732.334 C 774.277 734.064 774.248 733.447 778.092 733.503 C 774.439 736.668 763.23 744.867 763.511 749.159 L 766.62 750.842 C 768.343 753.903 759.352 757.998 758.872 764.169 L 761.017 765.341 C 769.694 765.347 775.063 758.021 780.588 752.121 C 789.566 742.534 798.532 733.63 810.668 727.92 C 802.954 735.886 772.31 759.354 772.389 769.537 L 773.883 770.879 C 785.429 771.922 794.776 755.789 803.327 750.018 C 810.063 745.472 829.132 733.74 836.754 738.185 C 840.187 747.248 820.205 764.067 831.657 773.647 C 838.857 779.248 842.758 759.922 846.235 755.901 C 861.988 737.684 867.284 728.231 873.84 705.29 C 889.244 693.176 915.165 676.019 933.745 671.126 C 969.33 661.754 984.628 653.55 1014.99 633.376 C 1009.4 631.384 1006.94 630.438 1001.56 627.644 C 1020.14 629.637 1030.75 635.31 1053.64 636.952 L 1056.96 641.129 C 1079.49 649.353 1104.86 577.97 1054.63 560.54 C 1053.44 564.037 1052.47 567.73 1051.45 571.29 C 1041.64 572.857 1031.21 576.091 1021.16 577.653 C 1012.43 579.009 1001.97 579.195 993.752 581.478 C 989.322 582.709 981.042 589.439 976.077 591.788 C 962.582 598.174 949.939 604.128 937.456 612.593 C 918.764 625.268 901.915 640.629 884.094 654.515 C 862.342 671.294 838.916 685.786 814.19 697.758 z"/>
<path transform="translate(0,0)" fill="rgb(232,1,3)" d="M 1839.01 1090.12 C 1839.97 1089.97 1842.83 1089.84 1843.35 1090.22 C 1851.81 1096.34 1856.74 1101.2 1866.25 1105.66 C 1801.62 1122.87 1707.67 1128.31 1641.25 1127.06 C 1631.83 1127.06 1622.42 1126.99 1613 1126.84 L 1612.56 1126.31 C 1685.24 1122.76 1769.85 1110.99 1839.01 1090.12 z"/>
<path transform="translate(0,0)" fill="rgb(232,1,3)" d="M 1824.16 1045.96 C 1824.8 1046.54 1828.44 1063.17 1829.38 1066.43 C 1779.93 1083 1709.65 1088.85 1657.75 1089.48 L 1654.2 1088.86 L 1654.26 1088.4 C 1721.51 1082.6 1763.92 1074.18 1824.16 1045.96 z"/>
<path transform="translate(0,0)" fill="rgb(0,0,0)" d="M 1468.77 532.344 C 1502.05 529.388 1506.34 557.669 1468.35 560.019 C 1455.6 558.973 1452.14 558.221 1440.14 553.75 C 1440.87 548.324 1441.53 542.889 1442.13 537.446 C 1451.13 535.473 1459.59 533.491 1468.77 532.344 z"/>
<path transform="translate(0,0)" fill="rgb(232,1,3)" d="M 1806.57 1428.09 C 1814.98 1427.8 1823.61 1428.06 1832.04 1428.19 C 1829.25 1436.87 1826.32 1445.51 1823.24 1454.09 C 1814.72 1454.33 1805.72 1454.2 1797.16 1454.2 C 1800.18 1445.25 1802.97 1436.85 1806.57 1428.09 z"/>
<path transform="translate(0,0)" fill="rgb(0,0,0)" d="M 1527.14 882.394 L 1531.58 884.207 C 1533.64 888.272 1528.07 903.094 1526.6 911.028 C 1510.48 906.979 1519.19 890.046 1527.14 882.394 z"/>
<path transform="translate(0,0)" fill="rgb(214,44,35)" d="M 1131.85 1644.92 C 1137.53 1644.18 1176 1640.64 1180.88 1640.82 C 1173.08 1642.7 1151.73 1646.66 1144.03 1647.14 C 1141.68 1644.69 1136.22 1645.25 1131.85 1644.92 z"/>
<path transform="translate(0,0)" fill="rgb(79,79,81)" fill-opacity="0.478431" d="M 1358.42 1257.22 L 1359.47 1257.18 C 1362.71 1257.1 1362.49 1256.7 1365.15 1257.98 C 1362.67 1259.72 1317.29 1259.27 1311.8 1258.1 C 1324.5 1257.18 1347.08 1259.15 1358.42 1257.22 z"/>
<path transform="translate(0,0)" fill="rgb(214,44,35)" fill-opacity="0.956863" d="M 367.436 693.091 C 374.124 692.56 379.506 692.17 386.207 692.182 C 390.667 694.661 393.239 693.075 398.495 694.929 C 391.983 695.18 384.162 694.921 377.542 694.862 L 367.436 693.091 z"/>
<path transform="translate(0,0)" fill="rgb(214,44,35)" fill-opacity="0.921569" d="M 277.03 794.073 C 270.717 794.076 264.592 794.223 258.315 793.513 C 265.003 791.95 270.929 791.948 277.773 791.663 L 277.03 794.073 z"/>
<path transform="translate(0,0)" fill="rgb(18,17,18)" fill-opacity="0.94902" d="M 1322.72 393.556 C 1328.32 395.019 1333.13 396.165 1338.56 398.258 C 1331.49 397.841 1325.69 396.641 1318.74 395.353 L 1322.72 393.556 z"/>
<path transform="translate(0,0)" fill="rgb(214,44,35)" fill-opacity="0.917647" d="M 1487.97 428.861 C 1493.99 432.857 1498.14 435.98 1503.8 440.487 L 1486.72 431.256 L 1487.97 428.861 z"/>
<path transform="translate(0,0)" fill="rgb(206,83,87)" fill-opacity="0.709804" d="M 377.542 694.862 C 370.777 695.019 365.642 695.492 359.015 693.825 L 359.667 693.885 C 362.747 692.475 363.779 692.994 367.436 693.091 L 377.542 694.862 z"/>
</svg>