<?xml version="1.0" encoding="UTF-8" standalone="no"?>
<!DOCTYPE svg PUBLIC "-//W3C//DTD SVG 1.1//EN" "http://www.w3.org/Graphics/SVG/1.1/DTD/svg11.dtd">
<svg width="100%" height="100%" viewBox="0 0 2093 324" version="1.1" xmlns="http://www.w3.org/2000/svg" xmlns:xlink="http://www.w3.org/1999/xlink" xml:space="preserve" xmlns:serif="http://www.serif.com/" style="fill-rule:evenodd;clip-rule:evenodd;stroke-linejoin:round;stroke-miterlimit:2;">
    <g id="Artboard1" transform="matrix(1,0,0,0.852632,-32,-130.452632)">
        <rect x="32" y="153" width="2093" height="380" style="fill:none;"/>
        <g transform="matrix(1,0,0,1.17284,-2,-40.518519)">
            <path d="M359.131,290.457C369.059,273.879 362.773,275.354 357.412,263.63C361.788,260.886 369.367,265.579 373.563,263.53C384.469,258.301 401.672,261.603 411.964,266.857C421.075,271.507 408.716,289.321 423.158,296.678C437.331,303.899 434.443,292.6 440.594,291.041C454.465,300.715 455.386,311.682 464.288,322.621C443.472,322.787 448.818,327.449 437.372,337.531C434.574,334.565 428.876,328.262 424.114,330.93C414.349,336.4 407.776,340.935 396.929,344.63C395.759,346.413 393.349,348.923 391.839,350.597L394.016,353.109C401.702,354.687 434.933,365.051 437.943,371.175C444.308,384.121 427.838,423.875 424.073,438.543C422.859,443.27 422.433,447.29 421.236,450.907L420.68,451.277C415.896,454.519 413.941,460.434 406.932,460.795C404.044,459.558 403.835,459.538 402.287,456.006C412.422,430.232 395.918,409.676 416.391,385.68L416.65,385.381C415.509,384.941 411.935,385.171 410.476,385.2L409.671,386.11L412.243,389.254C409.583,394.076 397.391,391.562 391.866,393.084C387.036,394.415 381.991,399.442 376.964,402.548L375.532,402.173C369.869,390.918 393.849,364.158 404.777,359.358L405.13,359.206L405.244,358.677C402.654,358.156 400.594,357.77 398.147,359.582C382.022,371.521 373.586,382.019 369.106,400.78C354.743,393.747 346.229,391.069 330.75,386.666C337.168,390.392 344.773,393.89 351.505,397.172C350.001,398.565 347.944,400.205 346.252,401.428C336.597,408.406 330.011,417.424 322.126,426.234L321.86,425.816C311.682,409.888 300.781,404.708 282.789,400.766C295.639,388.627 301.25,387.438 318.158,384.033C310.822,384.131 305.722,384.462 298.431,385.232C301.95,380.983 305.787,376.662 309.4,372.461C310.751,372.365 311.3,372.457 312.65,372.618C312.538,370.964 312.446,369.045 312.325,367.411C310.199,338.625 334.849,336.181 355.344,338.154C340.015,332.904 343.831,334.127 328.886,334.36C330.385,328.14 349.646,315.932 349.99,314.989C353.598,305.092 355.698,302.477 362.522,293.921C375.834,290.444 378.516,289.067 387.79,278.835C375.836,286.213 372.967,287.794 359.131,290.457Z" style="fill:white;fill-rule:nonzero;"/>
        </g>
        <g transform="matrix(1,0,0,1.17284,-2,-40.518519)">
            <path d="M369.068,345.358C377.158,348.948 383.123,349.314 391.839,350.597L394.016,353.109C372.554,348.802 362.975,348.123 341.684,352.775C352.254,347.734 357.671,347.146 369.068,345.358Z" style="fill:rgb(206,206,206);fill-rule:nonzero;"/>
        </g>
        <g transform="matrix(1,0,0,1.17284,-2,-40.518519)">
            <path d="M430.301,310.815C416.711,320.731 412.303,321.815 395.961,325.281L395.424,323.391C407.136,320.794 419.228,315.491 430.301,310.815Z" style="fill:white;fill-rule:nonzero;"/>
        </g>
        <g transform="matrix(1,0,0,1.17284,-2,-40.518519)">
            <path d="M395.424,323.391L395.961,325.281C392.303,325.861 390.483,326.32 386.788,325.542C388.416,323.965 392.958,323.73 395.424,323.391Z" style="fill:rgb(149,149,148);fill-rule:nonzero;"/>
        </g>
        <g transform="matrix(1,0,0,1.17284,0,-78.049383)">
            <path d="M732.804,351.173C740.204,343.048 754.277,320.838 762.147,310.99L793.242,310.862C782.513,341.849 771.714,374.482 760.314,405.101C758.062,411.707 755.084,419.773 753.103,426.342C745.249,426.359 734.466,426.062 726.845,426.487C728.945,418.981 733.024,408.327 735.695,400.731C739.38,390.25 742.981,379.739 746.498,369.2C737.89,380.972 729.505,392.904 721.346,404.991L712.582,417.491L697.788,417.578L697.735,366.251C691.814,385.241 683.525,406.924 676.989,426.237L650.867,426.367L690.669,311.103L720.914,310.9C720.874,315.716 720.953,320.533 721.152,325.346L720.911,369.807C724.939,363.636 728.903,357.424 732.804,351.173Z" style="fill:rgb(221,5,12);"/>
        </g>
        <g transform="matrix(1,0,0,1.17284,0,-78.049383)">
            <path d="M1137.37,351.998C1129.21,371.194 1123.94,396.673 1113.34,414.654C1105.18,428.478 1073.37,427.487 1059.15,426.388C1030.7,424.189 1043.45,403.588 1049.34,387.356C1055.49,370.418 1061.55,352.277 1067.75,335.24C1075.49,314.292 1086.22,309.58 1107.55,310.616C1127.77,311.598 1155.08,304.837 1142.6,336.673C1140.92,342.029 1139.41,346.774 1137.37,351.998ZM1096.44,334.339C1092.7,337.744 1073.24,393.08 1070.64,401.84L1091.72,401.909C1096.36,395.023 1112.82,345.504 1116.94,334.512L1096.44,334.339Z" style="fill:rgb(221,5,12);"/>
        </g>
        <g transform="matrix(1,0,0,1.17284,0,-78.049383)">
            <path d="M1137.37,351.998C1137.09,347.937 1135.7,347.139 1134.04,343.012L1134.98,341.352C1138.76,339.964 1139.48,339.276 1142.6,336.673C1140.92,342.029 1139.41,346.774 1137.37,351.998Z" style="fill:rgb(211,13,18);fill-rule:nonzero;"/>
        </g>
        <g transform="matrix(1,0,0,1.17284,0,-78.049383)">
            <path d="M1644.82,311.172C1661.31,310.957 1680.2,310.305 1696.65,311.217C1700.92,311.453 1705.68,313.842 1708.8,317.653C1715.14,328.715 1704.52,347.588 1699.79,358.187C1699.39,359.082 1694.38,362.874 1693.41,363.875C1693.04,364.206 1689.17,367.416 1689.17,367.413C1690.48,371.153 1693.86,373.782 1693.02,377.914C1689.69,394.231 1684.82,412.724 1670.76,422.589C1657.94,428.667 1620.43,426.449 1603.62,426.399C1616.79,388.272 1631.27,349.341 1644.82,311.172ZM1662.6,334.883C1660,341.849 1657.28,348.884 1655.09,355.983C1659.95,355.964 1670.43,356.226 1674.84,355.758C1678.18,349.185 1680.49,341.796 1682.88,334.799L1662.6,334.883ZM1651.86,379.474C1649.29,379.761 1647.67,379.385 1646.43,381.218C1642.55,386.969 1640.78,395.832 1638.43,402.324L1654.25,402.423C1662.92,401.282 1664.71,387.375 1667.54,379.58L1651.86,379.474Z" style="fill:white;"/>
        </g>
        <g transform="matrix(1,0,0,1.17284,0,-78.049383)">
            <path d="M1003.72,310.989L1035.27,310.917C1032.82,336.854 1030.21,362.774 1027.42,388.677C1026.3,399.474 1024.05,415.851 1023.61,426.3L996.766,426.224L999.281,407.274L969.448,407.161L963.247,416.793L957.048,426.333L930.064,426.391L938.135,413.532L1003.72,310.989ZM1006.7,345.78C1003.23,351.308 985.08,378.856 985.302,383.088L1001.96,383.065C1002.98,376.852 1007.64,350.114 1006.7,345.78Z" style="fill:rgb(221,5,12);"/>
        </g>
        <g transform="matrix(1,0,0,1.17284,0,-78.049383)">
            <path d="M835.243,311.044L867.202,310.881C862.593,349.276 858.428,387.724 854.709,426.215L828.148,426.377L830.409,407.305L801.553,407.311L789.294,426.269C782.577,426.306 768.289,426.685 762.274,425.778C766.86,418.796 770.51,413.074 774.588,405.759C795.248,376.754 814.777,340.963 835.243,311.044ZM837.762,345.877C833.749,352.615 819.102,375.922 816.587,381.922L817.336,383.054L833.525,383.102C834.315,377.851 839.522,348.476 837.762,345.877Z" style="fill:rgb(221,5,12);"/>
        </g>
        <g transform="matrix(1,0,0,1.17284,0,-78.049383)">
            <path d="M1761.4,311.108L1793.06,311.019C1788.17,344.869 1785.08,391.518 1781.7,426.303L1755.28,426.413L1757.34,407.248C1752.08,407.2 1731.11,406.469 1727.77,408.409L1716.85,426.378L1689.87,426.407C1710.72,389.877 1738.9,347.158 1761.4,311.108ZM1764.52,345.715C1761.78,350.305 1743.08,380.393 1743.49,383.119L1760.23,383.03C1761.22,376.544 1765.74,350.804 1764.52,345.715Z" style="fill:white;"/>
        </g>
        <g transform="matrix(1,0,0,1.17284,0,-78.049383)">
            <path d="M1170.81,311.43C1232.63,310.068 1248.97,302.345 1223.55,363.522C1213.15,388.549 1207.49,388.713 1179.92,388.973C1168.34,389.082 1168.81,388.407 1165.52,397.748C1161.92,406.961 1158.51,416.951 1155.14,426.306L1129.01,426.445C1143.65,388.892 1156.71,349.365 1170.81,311.43ZM1188.03,335.087L1177.07,365.122C1181.22,365.109 1193.37,365.323 1196.87,364.731C1199.79,358.613 1205.6,342.017 1207.64,335.126L1188.03,335.087Z" style="fill:white;"/>
        </g>
        <g transform="matrix(1,0,0,1.17284,0,-78.049383)">
            <path d="M1393.67,311.177L1419.38,311.035L1406.05,350.116C1417.62,337.004 1429.32,324.013 1441.16,311.145L1470.1,311.197C1456.51,326.858 1439.66,344.278 1425.5,359.934C1427.92,379.682 1430.17,399.451 1432.25,419.238C1432.61,421.779 1432.63,422.148 1432.2,424.667C1428.26,427.984 1411.33,426.495 1405.1,426.41L1400.57,381.849C1387.19,393.836 1384.73,408.792 1378.79,426.341L1352.38,426.41C1365.24,388.545 1380.27,349.296 1393.67,311.177Z" style="fill:white;fill-rule:nonzero;"/>
        </g>
        <g transform="matrix(1,0,0,1.17284,0,-78.049383)">
            <path d="M1320.75,311.197C1324.01,311.16 1328.13,311.217 1331.33,311.081C1373.15,309.299 1376.67,312.297 1363.03,350.921L1337.2,350.954L1343.04,334.787C1335.75,334.848 1328.47,334.95 1321.19,335.095C1313.73,357.254 1304.73,380.447 1296.59,402.474C1303.33,402.877 1311.03,402.616 1317.85,402.541C1322.99,390.174 1319.34,383.468 1335.02,384.053L1351.06,384.036C1346.82,396.399 1339.29,425.115 1322.79,425.602C1310.25,425.641 1258.8,435.105 1268.4,408.988C1278.69,380.968 1287.64,351.875 1299.6,324.6C1302.88,317.116 1313.35,312.854 1320.75,311.197Z" style="fill:white;fill-rule:nonzero;"/>
        </g>
        <g transform="matrix(1,0,0,1.17284,0,-78.049383)">
            <path d="M1563.32,311.23C1584.12,310.719 1606.34,311.076 1627.24,311.046C1624.59,319.027 1621.5,327.074 1618.58,334.972L1580.86,335.135C1578.26,341.319 1575.75,349.316 1573.53,355.774L1605.07,355.91C1602.32,363.936 1599.42,371.909 1596.36,379.824L1564.72,379.958C1562.04,387.034 1559.74,393.314 1557.43,400.549L1558.29,401.96L1595.45,401.923C1592.49,410.08 1589.46,418.211 1586.35,426.314L1521.54,426.444C1536.09,390.31 1549.78,348.254 1563.32,311.23Z" style="fill:white;fill-rule:nonzero;"/>
        </g>
        <g transform="matrix(1,0,0,1.17284,-2,-40.518519)">
            <path d="M200.29,270.023C207.737,252.513 225.334,231.763 239.382,219.103C277.394,185.114 327.252,167.443 378.185,169.909C431.504,172.709 475.469,197.533 510.652,236.601C509.664,239.397 509.562,240.028 507.251,241.854C504.706,242.284 504.396,242.23 501.974,241.317C426.326,165.12 319.252,165.267 241.652,238.533C226.576,254.332 215.606,269.067 206.7,289.24C205.82,291.323 205.156,292.559 204.068,294.512C199.197,297.621 193.604,297.182 187.596,297.585L192.849,284.789C193.674,281.715 198.374,272.66 200.29,270.023Z" style="fill:rgb(221,5,12);fill-rule:nonzero;"/>
        </g>
        <g transform="matrix(1,0,0,1.17284,-2,-40.518519)">
            <path d="M192.849,284.789C193.125,289.218 192.359,288.827 194.801,291.33C199.828,291.742 201.218,288.793 206.7,289.24C205.82,291.323 205.156,292.559 204.068,294.512C199.197,297.621 193.604,297.182 187.596,297.585L192.849,284.789Z" style="fill:rgb(211,13,18);fill-rule:nonzero;"/>
        </g>
        <g transform="matrix(1,0,0,1.17284,-2,-40.518519)">
            <path d="M516.045,377.232L515.66,379.433C512.262,383.045 501.608,379.854 497.48,377.998C494.998,376.882 492.44,368.167 491.384,367.626C484.108,363.893 475.308,362.452 468.032,358.683C462.526,355.242 454.662,346.475 448.615,342.89C447.209,342.056 445.497,344.348 441.976,341.088C441.538,333.442 454.491,322.481 462.242,325.915C467.901,328.422 468.967,332.332 471.404,337.459C489.666,342.835 493.081,356.654 510.278,359.633C515.508,360.539 518.505,365.31 516.704,370.191C517.699,369.95 524.33,368.577 524.356,368.557C540.922,356.25 537.975,348.912 561.142,356.198C577.989,361.496 588.68,361.193 584.374,385.244C578.247,420.9 558.503,417.065 531.915,404.853C524.322,401.365 523.692,387.272 521.296,380.312L519.006,379.611L516.045,377.232Z" style="fill:white;fill-rule:nonzero;"/>
        </g>
        <g transform="matrix(1,0,0,1.17284,-2,-40.518519)">
            <path d="M516.045,377.232L515.66,379.433C512.262,383.045 501.608,379.854 497.48,377.998C494.998,376.882 492.44,368.167 491.384,367.626C484.108,363.893 475.308,362.452 468.032,358.683C462.526,355.242 454.662,346.475 448.615,342.89C447.209,342.056 445.497,344.348 441.976,341.088C441.538,333.442 454.491,322.481 462.242,325.915C467.901,328.422 468.967,332.332 471.404,337.459C489.666,342.835 493.081,356.654 510.278,359.633C515.508,360.539 518.505,365.31 516.704,370.191C517.699,369.95 524.33,368.577 524.356,368.557C540.922,356.25 537.975,348.912 561.142,356.198C577.989,361.496 588.68,361.193 584.374,385.244C578.247,420.9 558.503,417.065 531.915,404.853C524.322,401.365 523.692,387.272 521.296,380.312L521.441,379.954L522.691,380.187C529.19,387.477 522.159,399.24 537.056,404.8C547.243,408.928 569.531,417.265 574.979,402.436C577.499,395.867 579.114,388.296 581.817,381.857C586.209,371.388 578.439,364.162 569.229,360.873C562.773,358.567 549.589,353.637 542.97,356.794C535.034,360.579 529.057,368.515 521.816,373.427C521.078,373.931 519.411,378.469 519.006,379.611L516.045,377.232Z" style="fill:white;fill-rule:nonzero;"/>
        </g>
        <g transform="matrix(1,0,0,1.17284,-2,-40.518519)">
            <path d="M542.265,358.12C549.582,356.954 565.787,360.637 572.37,364.341C586.368,372.214 578.14,392.629 572.071,403.12C569.498,407.567 566.736,408.598 561.971,409.658C545.617,405.236 530.187,405.729 527.42,386.754C526.777,382.346 524.603,380.087 522.722,376.173C523.926,372.191 524.043,373.914 528.139,371.388C533.845,367.87 536.433,363.056 542.265,358.12Z" style="fill:white;fill-rule:nonzero;"/>
        </g>
        <g transform="matrix(1,0,0,1.17284,0,-78.049383)">
            <path d="M943.732,311.02L972.574,311.046L931.551,364.446C912.666,388.719 912.914,397.251 902.353,426.258L876.335,426.415C880.795,413.372 891.567,388.371 890.68,375.596C889.208,354.407 886.961,332.301 885.008,311.088L912.815,311.028C913.459,324.113 914.228,337.191 915.121,350.261C924.192,336.985 934.102,323.917 943.732,311.02Z" style="fill:rgb(221,5,12);fill-rule:nonzero;"/>
        </g>
        <g transform="matrix(1,0,0,1.17284,0,-78.049383)">
            <path d="M1834.81,311.161L1861.64,311.111L1828.86,401.79C1840.45,402.047 1852.48,401.947 1864.11,402.014L1855.26,426.304L1793.62,426.347C1806.28,388.531 1821.44,349.048 1834.81,311.161Z" style="fill:white;fill-rule:nonzero;"/>
        </g>
        <g transform="matrix(1,0,0,1.17284,0,-78.049383)">
            <path d="M1486.77,311.231L1513.33,311.082C1504.28,339.295 1490.59,374.063 1480.06,401.914L1516.01,401.977C1513.14,410.166 1510.07,418.284 1506.81,426.325L1445.01,426.333C1458.71,387.886 1472.63,349.518 1486.77,311.231Z" style="fill:white;fill-rule:nonzero;"/>
        </g>
        <g transform="matrix(1,0,0,1.17284,0,-78.049383)">
            <path d="M1909.45,311.242L1936.23,311.165C1925.33,341.468 1914.25,371.708 1903,401.883L1938.23,401.948L1929.43,426.369L1867.99,426.475C1881.62,387.996 1895.44,349.584 1909.45,311.242Z" style="fill:white;fill-rule:nonzero;"/>
        </g>
        <g transform="matrix(1,0,0,1.17284,0,-78.049383)">
            <path d="M2066.39,372.627L2069.58,363.021C2071.18,357.976 2073.22,352.673 2075.06,347.674L2091.89,347.676L2089.67,354.709L2085.87,366.035C2079.56,385.009 2071.63,407.028 2066.2,426.009L2049.32,426.111L2046.65,386.633C2042.72,398.48 2037.85,414.754 2033.28,426.015C2028.69,426.22 2020.23,427.378 2017.05,424.519L2017.98,421.257C2020.91,409.708 2027.23,396.53 2029.72,384.537C2029.68,378.98 2032.68,369.195 2031.53,364.31C2027.95,367.142 2028.27,369.614 2022.34,374.357C2024.39,369.941 2026.68,365.636 2028.92,361.31L2032.17,356.694C2033.44,359.936 2033.65,361.106 2037.5,362.051L2042.52,347.647L2059.85,347.574L2061.91,368.997C2062.11,371.6 2062.06,376.382 2063.63,378.169C2065.36,376.854 2065.74,374.724 2066.39,372.627Z" style="fill:rgb(221,5,12);"/>
        </g>
        <g transform="matrix(1,0,0,1.17284,0,-78.049383)">
            <path d="M1258.64,311.269L1284.62,311.131C1271.02,349.649 1257.18,388.084 1243.11,426.434L1217.2,426.366C1218.82,421.226 1220.76,415.956 1222.64,410.893C1234.93,377.865 1246,344.147 1258.64,311.269Z" style="fill:white;fill-rule:nonzero;"/>
        </g>
        <g transform="matrix(1,0,0,1.17284,-2,-40.518519)">
            <path d="M283.284,405.472C295.207,407.128 306.366,413.883 314.804,422.259C304.91,430.106 293.854,437.542 283.447,444.789C267.893,445.796 237.992,452.863 222.4,457.319C215.522,459.34 209.047,465.064 202.655,460.277C199.529,457.936 199.028,458.983 198.138,455.214C202.154,446.043 221.047,443.857 227.528,438.38C243.66,424.747 245.649,424.17 265.921,424.932C276.024,415.323 274.024,417.95 283.284,405.472Z" style="fill:white;fill-rule:nonzero;"/>
        </g>
        <g transform="matrix(1,0,0,1.17284,-2,-40.518519)">
            <path d="M447.492,231.722C459.176,234.73 465.407,235.562 469.709,247.979L469.733,249.718L471.751,250.98C474.419,252.015 479.405,253.78 481.718,255.123L483.987,256.839C484.742,258.781 484.634,259.282 484.519,261.378C478.403,268.734 471.998,261.841 466.633,264.826C466.777,265.778 466.904,266.733 467.012,267.69C468.001,276.675 464.782,274.961 459.069,280.317C459.133,280.258 456.655,287.211 455.098,289.125C447.69,292.027 446.914,284.309 440.676,282.786C439.375,287.588 438.207,293.083 434.118,296.037C420.941,297.727 412.931,276.275 422.561,267.1C425.124,264.658 425.35,260.539 425.6,256.956L424.919,254.624C425.238,252.118 427.033,245.329 427.695,242.552C435.45,234.485 436.547,234.438 447.492,231.722Z" style="fill:white;fill-rule:nonzero;"/>
        </g>
        <g transform="matrix(1,0,0,1.17284,-2,-40.518519)">
            <path d="M447.492,231.722C459.176,234.73 465.407,235.562 469.709,247.979L469.733,249.718L471.751,250.98C474.419,252.015 479.405,253.78 481.718,255.123C463.852,257.127 463.656,257.257 447.331,249.788C438.976,251.096 433.006,252.823 424.919,254.624C425.238,252.118 427.033,245.329 427.695,242.552C435.45,234.485 436.547,234.438 447.492,231.722Z" style="fill:white;fill-rule:nonzero;"/>
        </g>
        <g transform="matrix(1,0,0,1.17284,-2,-40.518519)">
            <path d="M469.709,247.979L469.733,249.718L471.751,250.98C467.654,250.629 463.361,250.54 459.601,248.964C462.394,247.682 466.527,247.988 469.709,247.979Z" style="fill:white;fill-rule:nonzero;"/>
        </g>
        <g transform="matrix(1,0,0,1.17284,-2,-40.518519)">
            <path d="M424.919,254.624C433.006,252.823 438.976,251.096 447.331,249.788C463.656,257.257 463.852,257.127 481.718,255.123L483.987,256.839C464.533,255.012 471.629,265.22 447.237,251.335C439.152,253.057 433.502,254.54 425.6,256.956L424.919,254.624Z" style="fill:white;fill-rule:nonzero;"/>
        </g>
        <g transform="matrix(1,0,0,1.17284,-2,-40.518519)">
            <path d="M366.523,192.418C367.171,192.363 367.82,192.324 368.469,192.303C408.88,191.131 450.199,205.519 479.927,233.151C413.341,195.334 355.365,186.22 286.43,225.793C266.773,237.1 249.226,254.344 236.184,272.842C231.48,279.513 225.918,295.158 216.959,295.127C211.159,287.739 235.075,258.49 240.937,251.76C273.867,213.957 317.022,195.746 366.523,192.418Z" style="fill:white;fill-rule:nonzero;"/>
        </g>
        <g transform="matrix(1,0,0,1.17284,0,-78.049383)">
            <path d="M1984.09,347.602L2001.62,347.492C2000.32,354.701 1995.11,385.901 1995.76,391.963L1997.91,390.759C1998.35,388.25 1999.02,387.206 2000.18,384.969C2002.9,378.712 2006.98,371.205 2010.13,365.023C2012.75,359.284 2015.75,353.341 2018.52,347.637L2037.07,347.591L2032.17,356.694L2028.92,361.31C2026.68,365.636 2024.39,369.941 2022.34,374.357L2016.48,384.534L2013.46,390.155C2007.85,401.682 2000.58,414.889 1994.43,426.068L1975.49,426.108C1977.97,400.792 1980.68,372.681 1984.09,347.602Z" style="fill:rgb(221,5,12);fill-rule:nonzero;"/>
        </g>
        <g transform="matrix(1,0,0,1.17284,-2,-40.518519)">
            <path d="M352.071,265.282C358.086,268.332 362.455,278.436 359.075,284.441C355.055,291.581 346.262,288.416 340.027,286.829C325.773,296.761 309.538,298.793 297.179,309.983C292.901,313.856 291.541,328.569 283.195,330.534C282.296,328.58 284.925,325.141 284.938,320.48C282.411,319.11 282.427,319.85 278.691,320.926C274.658,324.829 269.281,331.404 263.371,327.577C260.09,315.981 285.383,304.347 293.271,298.24C305.349,288.888 317.415,279.092 331.112,272.183C338.293,268.56 345.722,272.839 352.071,265.282Z" style="fill:white;fill-rule:nonzero;"/>
        </g>
        <g transform="matrix(1,0,0,1.17284,-2,-40.518519)">
            <path d="M421.236,450.907L421.863,451.566C431.095,453.651 431.4,464.783 441.815,469.779C448.624,473.045 456.912,472.705 461.198,478.811L461.14,480.972C454.518,486.786 407.743,482.633 396.667,483.659C394.303,483.878 392.806,482.978 391.177,481.433C391.061,479.393 390.921,478.803 391.94,476.992C392.403,476.047 392.936,473.113 393.187,471.933C395.378,467.396 396.864,459.497 398.681,457.652L400.649,457.901L402.287,456.006C403.835,459.538 404.044,459.558 406.932,460.795C413.941,460.434 415.896,454.519 420.68,451.277L421.236,450.907Z" style="fill:white;fill-rule:nonzero;"/>
        </g>
        <g transform="matrix(1,0,0,1.17284,-2,-40.518519)">
            <path d="M391.94,476.992C392.403,476.047 392.936,473.113 393.187,471.933C394.445,473.938 394.979,475.419 397.67,475.575C412.393,476.427 427.212,479.239 441.835,480.466C434.188,481.119 398.881,478.792 391.94,476.992Z" style="fill:white;fill-rule:nonzero;"/>
        </g>
        <g transform="matrix(1,0,0,1.17284,-2,-40.518519)">
            <path d="M421.236,450.907L421.863,451.566C417.538,456.705 414.728,464.322 405.935,463.857C402.912,462.154 401.934,461.763 400.649,457.901L402.287,456.006C403.835,459.538 404.044,459.558 406.932,460.795C413.941,460.434 415.896,454.519 420.68,451.277L421.236,450.907Z" style="fill:white;fill-rule:nonzero;"/>
        </g>
        <g transform="matrix(1,0,0,1.17284,-2,-40.518519)">
            <path d="M405.531,468.936C413.351,468.849 421.735,476.417 426.524,469.795L428.734,470.666C426.278,474.416 427.442,473.639 423.801,475.448C417.654,475.51 411.278,471.649 405.531,468.936Z" style="fill:white;fill-rule:nonzero;"/>
        </g>
        <g transform="matrix(1,0,0,1.17284,-2,-40.518519)">
            <path d="M113.665,379.768C167.614,377 228.897,374.847 282.839,374.905L275.764,386.148C223.691,385.452 171.63,384.061 119.595,381.977L113.665,379.768Z" style="fill:rgb(211,13,18);fill-rule:nonzero;"/>
        </g>
        <g transform="matrix(1,0,0,1.17284,-2,-40.518519)">
            <path d="M184.664,444.344L187.514,444.943L187.988,446.043C183.814,453.119 182.166,455.277 176.656,461.404L177.899,461.881C188.286,454.523 182.774,443.282 201.985,446.54L202.2,448.369C199.996,451.13 200.266,450.396 196.43,451.757C195.668,458.27 203.157,460.593 204.055,466.616C201.652,469.131 202.116,468.4 198.103,469.221L197.592,468.082C197.558,468.23 182.856,480.355 180.292,483.809C173.152,483.816 164.041,485.962 159.517,480.64C157.895,472.535 168.404,464.499 174.503,460.94C177.537,453.048 178.772,450.383 184.664,444.344Z" style="fill:white;fill-rule:nonzero;"/>
        </g>
        <g transform="matrix(1,0,0,1.17284,-2,-40.518519)">
            <path d="M606.016,396.511C612.148,395.343 618.43,397.598 622.42,402.399C626.409,407.2 627.476,413.788 625.206,419.603C622.936,425.417 617.687,429.54 611.5,430.368C602.292,431.6 593.776,425.278 592.291,416.107C590.805,406.936 596.89,398.249 606.016,396.511Z" style="fill:white;fill-rule:nonzero;"/>
        </g>
        <g transform="matrix(1,0,0,1.17284,-2,-40.518519)">
            <path d="M244.409,399.435L267.088,398.486L259.754,409.275C222.969,409.129 186.187,408.612 149.412,407.723C141.637,407.4 133.864,406.995 126.097,406.51C138.346,404.596 156.739,404.205 169.554,403.512L244.409,399.435Z" style="fill:white;fill-rule:nonzero;"/>
        </g>
        <g transform="matrix(1,0,0,1.17284,-2,-40.518519)">
            <path d="M107.039,426.833C146.385,425.3 193.511,422.749 232.436,422.507C227.638,426.189 224.078,428.83 219.868,433.15L101.655,430.137L100.015,428.89L100.536,427.87L107.039,426.833Z" style="fill:white;fill-rule:nonzero;"/>
        </g>
        <g transform="matrix(1,0,0,1.17284,-2,-40.518519)">
            <path d="M224.472,358.231C247.807,356.838 272.66,355.266 295.99,354.694L289.187,364.692C283.821,366.74 200.49,364.134 188.291,363.924C184.901,363.501 181.921,363.084 178.542,362.478L178.88,361.198C194.072,360.128 209.269,359.139 224.472,358.231Z" style="fill:rgb(221,5,12);fill-rule:nonzero;"/>
        </g>
        <g transform="matrix(1,0,0,1.17284,-2,-40.518519)">
            <path d="M178.88,361.198C194.072,360.128 209.269,359.139 224.472,358.231C219.223,362.871 204.246,360.119 203.007,362.609C228.271,364.56 265.219,360.454 289.187,364.692C283.821,366.74 200.49,364.134 188.291,363.924C184.901,363.501 181.921,363.084 178.542,362.478L178.88,361.198Z" style="fill:rgb(211,13,18);fill-rule:nonzero;"/>
        </g>
        <g transform="matrix(1,0,0,1.17284,-2,-40.518519)">
            <path d="M264.117,330.707C267.011,336.883 267.846,337.637 272.371,342.656L195.132,340.682C193.534,338.114 190.983,340.329 188.787,337.767L189.501,337.611L189.54,336.47L189.172,337.382L190.903,337.258L191.153,335.174C191.833,335.042 192.781,334.402 193.437,334.027C216.795,332.922 240.802,331.482 264.117,330.707Z" style="fill:rgb(221,5,12);fill-rule:nonzero;"/>
        </g>
        <g transform="matrix(1,0,0,1.17284,-2,-40.518519)">
            <path d="M510.652,236.601C515.038,242.2 519.345,247.471 523.008,253.592C533.13,269.208 555.493,316.901 550.594,334.651C548.297,331.258 546.43,318.088 544.883,313.196C538.879,294.21 526.597,269.991 513.492,254.971C509.741,250.41 505.792,245.839 501.974,241.317C504.396,242.23 504.706,242.284 507.251,241.854C509.562,240.028 509.664,239.397 510.652,236.601Z" style="fill:rgb(211,13,18);fill-rule:nonzero;"/>
        </g>
        <g transform="matrix(1,0,0,1.17284,-2,-40.518519)">
            <path d="M192.74,305.947C220.884,304.679 251.143,301.818 279.443,299.849C276.527,302.815 272.017,307.164 269.506,310.248C253.706,310.302 215.447,310.443 200.31,309.05C197.191,308.657 194.833,308.438 191.799,307.477L192.74,305.947Z" style="fill:rgb(221,5,12);fill-rule:nonzero;"/>
        </g>
        <g transform="matrix(1,0,0,1.17284,0,-78.049383)">
            <path d="M1950.53,407.742L1967.74,407.528L1961.94,426.052L1944.67,426.082C1946.37,419.893 1948.33,413.775 1950.53,407.742Z" style="fill:rgb(211,13,18);fill-rule:nonzero;"/>
        </g>
        <g transform="matrix(1,0,0,1.17284,0,-78.049383)">
            <path d="M1961.57,413.209L1963.04,413.481L1962.66,417.507C1960,420.367 1955.05,421.025 1950.98,422.027L1949.19,420.68L1948.88,418.267C1951.11,415.262 1958.02,413.798 1961.57,413.209Z" style="fill:rgb(221,5,12);fill-rule:nonzero;"/>
        </g>
        <g transform="matrix(1,0,0,1.17284,-2,-40.518519)">
            <path d="M590.643,427.845L597.155,433.381C581.06,437.519 570.929,438.66 554.279,440.091C549.574,441.084 527.355,441.775 523.273,440.079C527.029,438.567 528.654,438.885 532.629,439.179C556.492,436.551 567.995,435.12 590.643,427.845Z" style="fill:rgb(211,13,18);fill-rule:nonzero;"/>
        </g>
        <g transform="matrix(1,0,0,1.17284,-2,-40.518519)">
            <path d="M554.279,440.091C549.574,441.084 527.355,441.775 523.273,440.079C527.029,438.567 528.654,438.885 532.629,439.179C539.837,439.661 547.056,439.965 554.279,440.091Z" style="fill:rgb(212,140,141);fill-rule:nonzero;"/>
        </g>
        <g transform="matrix(1,0,0,1.17284,-2,-40.518519)">
            <path d="M135.887,336.818C148.726,337.357 179.358,334.804 193.437,334.027C192.781,334.402 191.833,335.042 191.153,335.174L190.903,337.258L189.172,337.382L189.54,336.47L189.501,337.611L188.787,337.767C190.983,340.329 193.534,338.114 195.132,340.682C180.034,341.499 148.132,339.086 130.885,339.086L135.887,336.818Z" style="fill:rgb(211,13,18);fill-rule:nonzero;"/>
        </g>
        <g transform="matrix(1,0,0,1.17284,-2,-40.518519)">
            <path d="M546.495,426.424C563.84,424.739 574.697,417.256 584.718,416.148C585.886,418.117 586.114,418.424 586.181,420.727C581.513,424.99 554.941,427.655 547.675,428.372C547.351,428.049 546.758,426.892 546.495,426.424Z" style="fill:rgb(211,13,18);fill-rule:nonzero;"/>
        </g>
        <g transform="matrix(1,0,0,1.17284,-2,-40.518519)">
            <path d="M101.655,430.137C96.357,430.271 74.941,429.341 69.813,428.311C72.78,426.585 101.91,426.702 107.039,426.833L100.536,427.87L100.015,428.89L101.655,430.137Z" style="fill:white;fill-rule:nonzero;"/>
        </g>
        <g transform="matrix(1,0,0,1.17284,-2,-40.518519)">
            <path d="M160.486,362.17L178.88,361.198L178.542,362.478C181.921,363.084 184.901,363.501 188.291,363.924C183.809,364.171 177.638,363.939 173.026,363.9C165.822,364.256 163.41,364.318 156.337,363.173L156.548,362.338L160.486,362.17Z" style="fill:rgb(200,85,85);fill-rule:nonzero;"/>
        </g>
        <g transform="matrix(1,0,0,1.17284,-2,-40.518519)">
            <path d="M173.026,363.9C165.822,364.256 163.41,364.318 156.337,363.173L156.548,362.338L160.486,362.17C165.154,363.072 168.286,363.48 173.026,363.9Z" style="fill:rgb(212,140,141);fill-rule:nonzero;"/>
        </g>
        <g transform="matrix(1,0,0,1.17284,-2,-40.518519)">
            <path d="M177.94,306.797C181.042,306.952 189.283,306.181 192.74,305.947L191.799,307.477C194.833,308.438 197.191,308.657 200.31,309.05C192.651,309.494 180.88,309.132 172.901,309.166L177.94,306.797Z" style="fill:rgb(200,85,85);fill-rule:nonzero;"/>
        </g>
        <g transform="matrix(1,0,0,1.17284,-2,-40.518519)">
            <path d="M94.032,380.374L113.665,379.768L119.595,381.977C111.041,382.324 102.475,381.787 94.032,380.374Z" style="fill:rgb(200,85,85);fill-rule:nonzero;"/>
        </g>
        <g transform="matrix(1,0,0,1.17284,-2,-40.518519)">
            <path d="M547.675,428.372C545.492,429.335 538.862,429.735 536.621,428.525C538.614,426.552 543.448,426.674 546.495,426.424C546.758,426.892 547.351,428.049 547.675,428.372Z" style="fill:rgb(212,140,141);fill-rule:nonzero;"/>
        </g>
        <g transform="matrix(1,0,0,1.17284,-2,-40.518519)">
            <path d="M119.317,338.157C125.578,337.305 129.568,336.991 135.887,336.818L130.885,339.086C126.358,339.38 123.749,338.841 119.317,338.157Z" style="fill:rgb(212,140,141);fill-rule:nonzero;"/>
        </g>
        <g transform="matrix(1,0,0,1.17284,-2,-40.518519)">
            <path d="M172.901,309.166C171.283,309.16 170.129,308.75 168.575,308.331C171.448,306.881 174.707,306.972 177.94,306.797L172.901,309.166Z" style="fill:rgb(224,177,178);fill-rule:nonzero;"/>
        </g>
    </g>
</svg>
