<svg version="1.1" xmlns="http://www.w3.org/2000/svg" style="display: block;" viewBox="0 0 2508 627" width="2508" height="627" preserveAspectRatio="none">
<path transform="translate(0,0)" fill="rgb(253,253,253)" d="M 0 0 L 2508 0 L 2508 627 L 0 627 L 0 0 z"/>
<path transform="translate(0,0)" fill="rgb(1,1,1)" d="M 631.958 246.168 C 626.85 233.918 622.049 224.381 627.115 210.519 C 628.931 205.547 633.756 201.397 637.012 197.2 L 633.958 195.284 C 637.819 189.227 652.337 191.544 658.072 187.877 C 657.259 186.142 655.572 185.553 653.791 184.586 C 665.793 177.075 680.047 188.243 684.898 186.215 C 684.311 185.35 682.755 183.182 682.376 182.37 C 688.868 182.098 694.805 186.321 699.313 190.463 C 700.911 191.936 702.492 193.428 704.056 194.937 L 704.939 194.432 L 705.511 190.556 C 707.012 190.608 708.922 192.243 709.799 193.552 C 715.951 202.724 714.929 208.147 707.635 214.55 C 708.087 218.515 710.392 230.586 709.518 233.213 C 706.497 236.212 704.775 236.551 707.381 241.989 C 715.539 259.017 707.375 251.949 703.87 257.045 C 692.402 273.714 707.226 284.191 674.629 275.728 C 681.94 304.468 657.44 332.932 651.382 357.362 C 638.484 367.99 625.197 378.137 611.549 387.783 L 614.058 388.249 C 613.646 391.398 608.745 397.538 606.352 399.794 C 602.678 403.259 593.822 401.32 590.793 404.09 L 592.131 406.477 L 591.091 407.426 C 557.798 402.267 546.546 406.314 514.17 415.388 L 517.953 417.551 C 533.035 416.472 600.353 397.814 604.124 419.625 C 602.53 419.359 601.658 419.193 599.999 419.201 C 611.805 427.733 613.626 428.857 623.226 439.103 C 604.243 431.111 588.916 427.506 569.374 436.416 C 551.154 444.722 527.753 459.967 535.033 482.652 C 531.94 480.232 509.816 463.625 509.426 462.755 L 510.596 460.855 C 500.834 460.146 472.235 496.095 463.276 502.868 C 456.826 507.744 445.614 504.028 438.996 501.851 L 430.171 509.116 L 347.185 509.007 C 351.21 507.577 364.408 502.586 367.866 502.563 L 368.348 503.639 L 367.042 506.407 C 369.982 507.321 395.029 493.817 401.311 491.528 C 392.414 493.487 383.963 495.412 374.951 496.774 C 377.497 493.326 387.393 480.888 387.903 478.095 L 386.245 473.315 C 396.568 460.946 428.038 475.718 438.417 482.668 C 441.891 480.496 442.948 480.228 446.794 479.153 C 434.37 468.747 429.963 468.335 414.683 463.442 L 414.887 462.808 L 418.061 461.607 L 417.175 460.405 C 410.757 460.953 398.96 463.386 392.231 464.574 C 397.812 457.049 402.658 451.274 408.817 444.19 C 411.855 443.541 415.277 443.025 418.367 442.488 C 427.283 426.343 452.028 409.791 467.175 400.53 C 446.301 408.289 441.588 410.841 424.185 424.424 C 427.152 419.633 444.417 396.321 448.995 396.913 C 448.197 399.088 447.565 400.944 446.91 403.166 C 450.078 402.786 460.718 392.281 465.834 389.475 C 473.829 385.091 477.901 384.495 486.661 382.377 L 486.084 378.647 C 477.384 378.729 471.58 380.003 463.341 382.016 C 464.702 380.532 466.098 379.079 467.527 377.66 C 477.985 367.373 486.925 369.15 501.026 369.264 C 500.56 368.226 499.769 367.419 499.024 366.551 C 500.764 365.597 506.186 366.71 508.523 367.02 L 508.733 366.227 C 502.642 364.014 491.359 362.455 488.477 359.826 L 488.89 357.331 C 493.615 350.79 505.026 346.245 513 340.831 C 510.896 341.185 508.045 342.082 506.468 341.246 C 511.144 328.921 519.687 311.964 525.46 299.722 C 523.895 306.759 517.001 336.252 517.164 341.169 C 521.351 340.753 535.358 331.404 537.057 327.905 C 532.78 329.761 528.625 331.599 524.248 333.211 C 526.255 324.747 528.63 315.53 530.324 307.067 C 534.94 311.328 536.321 312.949 542.775 312.66 C 552.576 312.22 562.275 305.347 568.332 297.993 C 582.274 281.065 588.619 266.103 583.362 245.076 C 592.157 246.323 600.919 247.792 609.64 249.481 C 601.644 277.731 603.42 295.537 620.792 319.735 C 641.228 316.258 649.354 311.741 660.264 293.725 C 648.337 305.233 642.361 309.681 625.022 312.573 C 614.757 298.025 605.925 268.651 617.961 253.256 C 621.414 248.839 624.152 258.695 631.958 246.168 z"/>
<path transform="translate(0,0)" fill="rgb(227,2,10)" d="M 464.29 434.874 C 454.763 442.171 423.255 452.952 417.175 460.405 C 410.757 460.953 398.96 463.386 392.231 464.574 C 397.812 457.049 402.658 451.274 408.817 444.19 C 411.855 443.541 415.277 443.025 418.367 442.488 C 432.233 441.257 449.947 436.993 464.29 434.874 z"/>
<path transform="translate(0,0)" fill="rgb(253,253,253)" d="M 508.733 366.227 C 528.528 374.877 540.436 386.363 555.274 392.576 C 540.94 389.123 531.602 386.74 519.66 376.934 C 516.225 374.113 511.727 369.481 508.523 367.02 L 508.733 366.227 z"/>
<path transform="translate(0,0)" fill="rgb(253,253,253)" d="M 446.794 479.153 C 453.332 485.408 456.693 489.082 464.439 493.814 C 451.242 491.935 448.505 491.637 438.417 482.668 C 441.891 480.496 442.948 480.228 446.794 479.153 z"/>
<path transform="translate(0,0)" fill="rgb(253,253,253)" d="M 486.084 378.647 C 494.754 378.792 498.864 379.58 507.279 381.533 C 501.488 381.671 492.137 381.624 486.661 382.377 L 486.084 378.647 z"/>
<path transform="translate(0,0)" fill="rgb(240,236,235)" d="M 514.17 415.388 L 517.953 417.551 C 515.809 417.965 502.83 418.674 500.356 418.842 L 499.283 417.305 L 498.784 417.457 L 498.295 418.685 L 497.442 418.406 L 499.186 417.47 L 497.851 418.67 L 498.504 417.691 L 499.173 418.927 L 499.987 419.011 L 500.316 417.276 C 504.828 416.504 509.609 415.968 514.17 415.388 z"/>
<path transform="translate(0,0)" fill="rgb(227,2,10)" d="M 548.978 426.352 C 549.831 426.656 584.284 426.428 589.959 426.977 C 585.69 427.902 581.349 428.377 577.041 429.082 C 556.587 432.427 536.854 439.075 516.757 443.988 C 504.433 447.384 492.038 450.515 479.58 453.38 C 485.918 448.715 540.16 429.004 548.978 426.352 z"/>
<path transform="translate(0,0)" fill="rgb(253,253,253)" d="M 626.04 360.153 L 626.267 360.296 L 625.928 361.437 C 606.14 375.536 598.464 379.193 574.809 384.489 L 574.504 383.703 C 589.704 378.823 611.843 367.767 626.04 360.153 z"/>
<path transform="translate(0,0)" fill="rgb(227,2,10)" d="M 898.205 301.903 L 944.413 301.877 L 942.442 370.999 C 960.378 349.648 978.937 322.176 997.334 301.956 L 1045.17 301.928 C 1027.43 347.597 1009.35 393.135 990.939 438.539 L 951.515 438.623 C 954.665 431.201 957.689 423.725 960.586 416.2 C 960.893 411.472 961.975 408.321 960.361 404.401 L 958.588 403.686 C 953.34 409.876 948.978 417.468 942.088 420.743 C 940.477 422.047 930.645 435.786 928.74 438.39 L 906.785 438.676 C 906.486 418.169 907.323 395.961 907.733 375.341 C 898.897 393.779 889.112 419.248 881.072 438.564 L 842.506 438.632 C 859.332 394.886 879.749 345.007 898.205 301.903 z"/>
<path transform="translate(0,0)" fill="rgb(240,236,235)" d="M 942.088 420.743 C 952.104 405.912 965.516 390.269 977.034 376.446 C 971.8 389.799 966.316 403.053 960.586 416.2 C 960.893 411.472 961.975 408.321 960.361 404.401 L 958.588 403.686 C 953.34 409.876 948.978 417.468 942.088 420.743 z"/>
<path transform="translate(0,0)" fill="rgb(1,1,1)" d="M 308.995 350.94 C 314.8 343.135 319.738 335.368 325.49 327.61 C 328.221 323.926 340.02 323.296 344.945 320.376 C 356.666 312.936 374.912 306.308 386.132 299.132 C 410.963 283.249 426.264 269.326 457.388 272.827 C 458.837 272.99 461.494 272.013 462.594 270.505 L 460.118 269.728 L 460.481 269.101 C 467.703 264.79 502.688 252.216 510.605 252.267 L 509.765 255.28 C 513.427 255.018 524.53 242.855 535.229 240.692 C 543.338 238.317 552.561 238.143 560.635 240.708 C 561.149 240.997 563.713 242.632 564.069 243.056 C 565.356 244.592 575.01 246.304 575.689 247.033 C 583.847 255.794 573.761 278.533 568.241 287.053 C 562.717 295.577 554.294 303.678 544.024 305.784 L 542.294 306.471 C 532.392 304.82 531.721 297.483 531.73 289.269 L 531.079 286.235 C 518.79 284.506 504.223 293.802 493.854 294.179 C 470.647 295.023 471.975 292.317 452.006 303.516 C 428.801 316.53 402.179 312.883 375.703 325.96 C 365.668 324.526 343.838 326.374 338.065 335.579 L 339.121 336.474 C 341.629 336.219 344.176 335.001 346.342 333.767 C 357.094 327.64 362.507 327.91 374.754 330.585 C 376.842 329.137 375.843 329.39 378.551 329.768 C 441.182 342.36 415.147 429.733 357.63 417.247 C 357.281 417.173 356.934 417.091 356.589 417 L 357.672 414.064 C 347.402 414.13 344.199 412.164 335.773 406.451 C 330.352 409.299 329.341 411.92 325.142 411.893 L 324.238 411.364 C 325.895 410.924 325.316 411.282 326.449 410.024 C 324.761 407.258 317.342 393.449 316.256 392.543 L 317.165 391.956 L 321.173 392.923 C 321.165 389.304 320.958 387.586 323.005 384.387 L 320.351 381.38 L 318.621 382.282 C 316.756 382.901 316.08 382.726 314.195 382.514 C 312.433 381.21 310.836 375.388 308.56 371.668 C 308.827 368.866 307.451 365.781 306.555 362.975 C 308.307 360.397 306.414 360.238 308.858 357.566 L 311.782 363.819 C 311.816 359.892 310.109 354.84 308.995 350.94 z"/>
<path transform="translate(0,0)" fill="rgb(240,236,235)" d="M 374.754 330.585 C 376.842 329.137 375.843 329.39 378.551 329.768 C 441.182 342.36 415.147 429.733 357.63 417.247 C 357.281 417.173 356.934 417.091 356.589 417 L 357.672 414.064 C 347.402 414.13 344.199 412.164 335.773 406.451 C 330.352 409.299 329.341 411.92 325.142 411.893 L 324.238 411.364 C 325.895 410.924 325.316 411.282 326.449 410.024 C 324.761 407.258 317.342 393.449 316.256 392.543 L 317.165 391.956 L 321.173 392.923 C 321.165 389.304 320.958 387.586 323.005 384.387 L 320.351 381.38 L 318.621 382.282 C 314.758 360.97 318.978 362.701 326.547 344.829 L 327.756 342.331 L 330.272 345.443 C 328.918 347.38 327.936 349.112 326.764 351.161 C 329.759 352.341 344.731 347.158 351.33 347.888 C 369.592 349.91 383.908 359.479 400.529 363.864 C 400.438 363.519 400.344 363.176 400.248 362.833 C 395.542 346.088 389.411 338.863 374.754 330.585 z"/>
<path transform="translate(0,0)" fill="rgb(1,1,1)" d="M 322.222 358.113 C 335.943 350.16 349.95 349.211 365.024 353.916 C 373.581 356.587 401.286 363.095 400.978 373.762 C 400.416 374.403 399.737 375.177 398.943 376.082 C 393.041 377.023 384.028 377.75 378.45 378.756 C 365.967 381.009 354.708 385.504 341.936 386.08 C 335.542 386.368 329.098 386.239 323.005 384.387 L 320.351 381.38 C 320.107 372.117 319.764 367.202 322.222 358.113 z"/>
<path transform="translate(0,0)" fill="rgb(1,1,1)" d="M 321.617 386.394 C 334.095 389.447 338.351 388.787 350.809 387.574 C 359.822 386.697 392.97 375.731 398.495 381.009 C 395.347 391.782 384.892 402.634 375.193 408.003 C 369.752 411.032 363.822 413.083 357.672 414.064 C 347.402 414.13 344.199 412.164 335.773 406.451 C 327.997 399.232 326.115 396.05 321.617 386.394 z"/>
<path transform="translate(0,0)" fill="rgb(1,1,1)" d="M 378.551 329.768 C 441.182 342.36 415.147 429.733 357.63 417.247 C 357.281 417.173 356.934 417.091 356.589 417 C 372.595 412.073 385.728 409.29 395.13 392.967 C 397.371 389.078 399.097 384.809 402.615 382.092 L 404.194 382.33 C 408.532 386.282 407.372 384.737 408.518 391.067 C 412.644 380.429 401.837 381.314 402.24 370.088 C 402.446 364.341 406.662 366.708 411.786 361.948 L 411.07 361.369 C 405.855 363.389 402.502 365.747 401.48 358.739 C 399.442 344.754 389.526 337.244 378.551 329.768 z"/>
<path transform="translate(0,0)" fill="rgb(1,1,1)" d="M 531.73 289.269 C 541.127 294.078 541.298 296.116 542.294 306.471 C 532.392 304.82 531.721 297.483 531.73 289.269 z"/>
<path transform="translate(0,0)" fill="rgb(240,236,235)" d="M 531.079 286.235 C 540.968 289.309 544.169 295.521 544.024 305.784 L 542.294 306.471 C 541.298 296.116 541.127 294.078 531.73 289.269 L 531.079 286.235 z"/>
<path transform="translate(0,0)" fill="rgb(134,135,134)" d="M 326.547 344.829 C 326.422 344.117 326.307 343.405 326.203 342.69 C 325.761 339.648 325.407 336.055 327.321 333.487 C 328.724 335.88 328.008 339.436 327.756 342.331 L 326.547 344.829 z"/>
<path transform="translate(0,0)" fill="rgb(1,1,1)" d="M 1669.64 302.239 C 1687.19 300.303 1722.31 300.729 1739.79 304.606 C 1744.26 305.597 1748.9 316.163 1747.32 320.752 C 1735.88 353.993 1722.18 387.149 1708.73 419.673 C 1704.68 429.455 1692.82 434.9 1683.46 437.877 C 1668.9 440.201 1625.25 440.249 1610.58 435.175 C 1605.76 433.507 1602.62 424.001 1604.52 418.691 C 1616.32 385.608 1629.46 352.287 1643.59 320.113 C 1647.64 310.902 1660.57 304.75 1669.64 302.239 z"/>
<path transform="translate(0,0)" fill="rgb(253,253,253)" d="M 1676.52 332.878 C 1685.89 332.519 1697.13 332.828 1706.65 332.842 C 1702.33 343.721 1680.25 400.635 1675.65 407.286 C 1665.54 407.727 1656.04 407.471 1645.94 407.238 C 1648.65 398.168 1672.22 337.352 1676.52 332.878 z"/>
<path transform="translate(0,0)" fill="rgb(1,1,1)" d="M 2169.02 302.313 C 2186.41 300.668 2205.14 302.463 2222.58 301.681 C 2233.73 301.182 2251.42 307.349 2246.26 321.612 C 2234.48 354.131 2221.43 386.777 2207.8 418.584 C 2203.11 429.529 2190.88 434.955 2180.34 438.282 C 2163.93 440.008 2136.04 439.205 2119.3 438.093 C 2098.61 436.717 2103.04 419.698 2108.75 405.722 C 2120.21 377.721 2130.32 347.523 2142.89 319.859 C 2147.17 310.319 2159.81 304.876 2169.02 302.313 z"/>
<path transform="translate(0,0)" fill="rgb(253,253,253)" d="M 2175.29 332.839 C 2184.43 332.441 2195.81 332.735 2205.12 332.715 C 2200.65 344.005 2178.7 402.104 2173.94 407.401 C 2165.47 407.874 2153.8 407.489 2145.09 407.453 C 2147.76 398.604 2171.32 337.6 2175.29 332.839 z"/>
<path transform="translate(0,0)" fill="rgb(227,2,10)" d="M 1424.68 302.176 C 1433.56 300.984 1446.91 302.002 1456.44 301.724 C 1467 301.416 1483.16 300.73 1492.84 304.467 C 1499.09 306.879 1501.53 317.496 1499.36 323.602 C 1487.87 355.886 1475.09 388.26 1461.78 419.865 C 1457.44 430.142 1443.9 435.305 1434.08 438.231 C 1422.56 439.268 1374.42 440.012 1365.66 435.779 C 1362.2 434.132 1359.58 431.123 1358.42 427.469 C 1357.54 424.762 1357.49 419.724 1358.52 416.938 C 1370.36 384.948 1383.25 352.969 1396.77 321.645 C 1401.5 310.686 1414.17 305.53 1424.68 302.176 z"/>
<path transform="translate(0,0)" fill="rgb(253,253,253)" d="M 1429.8 332.831 C 1436.3 332.207 1452.19 332.708 1459.38 332.727 C 1456.04 342.326 1432.56 402.556 1428.36 407.601 C 1418.36 407.754 1408.36 407.712 1398.36 407.476 C 1408.68 386.269 1416.33 363.866 1425.25 342.059 C 1426.56 338.848 1427.91 335.752 1429.8 332.831 z"/>
<path transform="translate(0,0)" fill="rgb(1,1,1)" d="M 1528.73 301.889 C 1539.55 301.885 1554.93 301.442 1563.57 301.744 C 1603.98 303.154 1640.24 291.442 1613.48 347.303 C 1606.81 361.214 1606.24 361.872 1592.66 368.165 C 1607.15 382.102 1591.98 403.278 1585.93 418.649 C 1583.55 424.685 1576.13 430.331 1570.8 433.912 C 1558.25 439.431 1550.34 438.88 1536.86 438.836 C 1515.65 438.767 1494.42 438.751 1473.2 438.753 C 1479.24 426.419 1486.83 405.942 1492.13 392.718 C 1504.16 362.374 1516.36 332.098 1528.73 301.889 z"/>
<path transform="translate(0,0)" fill="rgb(253,253,253)" d="M 1532.43 384.759 L 1562.13 384.704 C 1559.72 391.343 1556.15 401.879 1552.46 407.572 L 1523.61 407.459 L 1532.43 384.759 z"/>
<path transform="translate(0,0)" fill="rgb(253,253,253)" d="M 1554.01 332.8 L 1583.07 332.784 L 1573.86 354.369 C 1568.5 355.903 1551.5 355.406 1545.02 355.393 C 1547.88 347.808 1550.87 340.275 1554.01 332.8 z"/>
<path transform="translate(0,0)" fill="rgb(1,1,1)" d="M 1851.95 302.001 C 1863.88 301.629 1877.08 301.912 1889.1 301.919 L 1854.77 390.424 C 1849.46 404.004 1841.45 426.43 1835.33 438.69 L 1798.03 438.671 C 1793.92 414.657 1790.02 390.608 1786.33 366.527 L 1757.71 438.479 C 1745.36 438.648 1733.01 438.704 1720.65 438.647 L 1774.23 301.842 L 1812.02 301.919 L 1824.54 374.588 C 1833.92 350.89 1842.93 325.913 1851.95 302.001 z"/>
<path transform="translate(0,0)" fill="rgb(1,1,1)" d="M 2029.22 301.932 C 2045.4 301.884 2106.49 299.316 2117.2 304.655 C 2120.06 306.081 2121.78 308.849 2122.73 311.808 C 2126.94 324.97 2112.21 357.694 2105.85 370.061 C 2100.59 380.27 2092.66 384.703 2081.98 388.149 C 2083.39 403.73 2085.02 423.169 2085.17 438.605 L 2047.03 438.68 L 2046.54 421.75 C 2045.88 411.914 2045.94 401.664 2045.85 391.775 L 2031.87 391.723 C 2025.86 407.072 2019.7 423.539 2013.2 438.582 L 1975.89 438.56 C 1994.03 393.161 2011.81 347.617 2029.22 301.932 z"/>
<path transform="translate(0,0)" fill="rgb(253,253,253)" d="M 2055.32 332.939 L 2084.12 332.752 C 2081.75 340.275 2076.38 353.699 2072.97 360.751 C 2063.56 360.911 2053.71 360.74 2044.26 360.718 C 2047.85 351.417 2051.53 342.157 2055.32 332.939 z"/>
<path transform="translate(0,0)" fill="rgb(1,1,1)" d="M 1926.33 302.339 C 1943.83 300.662 1966.88 301.608 1984.85 301.687 C 2015.59 301.822 1999.88 333.645 1994.22 347.534 C 1981.9 347.691 1969.58 347.686 1957.25 347.519 L 1963.18 332.739 C 1932.91 332.281 1934.27 327.025 1923.48 356.829 C 1917.62 373.02 1910.12 390.973 1903.99 407.416 C 1913.94 407.711 1925.08 407.467 1935.13 407.471 C 1937.66 401.466 1940.12 395.432 1942.51 389.369 L 1924.46 389.418 C 1928.17 381.279 1932.45 369.354 1935.76 360.867 L 1950.25 360.775 L 1989.3 360.735 C 1962.08 433.448 1966.57 444.309 1877.08 438.352 C 1862.05 435.988 1859.42 427.004 1864.39 413.47 C 1875.79 382.404 1887.95 351.197 1900.66 320.656 C 1904.47 311.506 1917.37 304.959 1926.33 302.339 z"/>
<path transform="translate(0,0)" fill="rgb(227,2,10)" d="M 1099.12 301.894 C 1115.05 301.757 1131.29 301.964 1147.25 302.005 C 1142.23 347.589 1136.75 393.121 1130.8 438.593 C 1117.63 438.371 1103.84 438.566 1090.62 438.558 C 1092.4 430.691 1094.09 422.803 1095.69 414.896 C 1088.82 414.834 1061.1 413.518 1057.12 416.513 L 1041.7 438.537 C 1028.54 438.352 1014.58 438.638 1001.36 438.697 C 1032.29 394.289 1066.04 344.175 1099.12 301.894 z"/>
<path transform="translate(0,0)" fill="rgb(240,236,235)" d="M 1106.63 343.777 C 1106.92 347.415 1101.3 378.119 1100.37 383.454 C 1093.57 383.727 1086.48 383.618 1079.65 383.614 C 1079.3 380.444 1102.72 348.899 1106.63 343.777 z"/>
<path transform="translate(0,0)" fill="rgb(227,2,10)" d="M 1313.55 301.855 L 1361.67 302.076 C 1356.42 347.622 1350.6 393.102 1344.22 438.504 C 1331.13 438.468 1318.05 438.523 1304.97 438.669 C 1306.71 430.786 1308.35 422.88 1309.89 414.954 L 1273.05 414.888 C 1268.25 420.98 1261.33 431.762 1256.72 438.454 L 1216.69 438.559 C 1248.48 392.644 1280.77 347.073 1313.55 301.855 z"/>
<path transform="translate(0,0)" fill="rgb(240,236,235)" d="M 1320.54 344.739 C 1321.59 348.439 1315.89 377.138 1314.71 383.451 C 1308.54 383.7 1301.58 383.487 1295.35 383.435 L 1294.82 382.839 C 1295.09 379.954 1317.28 349.323 1320.54 344.739 z"/>
<path transform="translate(0,0)" fill="rgb(227,2,10)" d="M 1245.61 301.79 C 1260.1 302.063 1275.14 301.892 1289.68 301.905 C 1271.99 321.026 1254.5 340.323 1237.2 359.793 C 1229.04 369.013 1213.68 383.738 1209.04 394.226 C 1202.83 408.284 1196.83 424.297 1191.05 438.652 C 1178.29 438.42 1164.83 438.608 1152.02 438.598 C 1155.36 431.204 1171.45 392.743 1171.39 387.77 C 1171.05 361.916 1164.69 328.272 1162.61 301.905 L 1204.71 301.899 C 1205.67 317.199 1206.43 332.511 1206.98 347.831 C 1219.91 332.064 1232.1 317.086 1245.61 301.79 z"/>
<path transform="translate(0,0)" fill="rgb(227,2,10)" d="M 496.917 152.452 C 529.856 149.793 599.169 164.104 627.79 180.14 C 612.295 176.146 596.584 173.045 580.734 170.854 C 495.136 158.963 421.973 180.262 353.628 231.981 C 333.604 248.56 317.399 263.754 302.152 284.921 L 263.852 285.22 C 271.548 273.011 282.867 258.805 292.54 248.223 C 345.331 190.543 418.811 156.11 496.917 152.452 z"/>
<path transform="translate(0,0)" fill="rgb(227,2,10)" d="M 2337.52 334.304 C 2342.48 333.035 2400.35 332.48 2402.39 333.552 C 2404.06 335.96 2403.37 339.139 2403.12 342.158 C 2404.38 354.708 2406.62 369.433 2408.61 381.897 C 2414.34 366.666 2420.33 350.557 2425.36 335.073 L 2453.18 334.984 C 2441.92 369.016 2427.99 404.932 2415.43 438.583 L 2387.55 438.455 L 2381.47 389.062 C 2377.09 401.321 2367.04 427.015 2364.11 438.563 L 2335.11 438.559 C 2341.58 416.313 2355.54 388.9 2361.78 367.119 C 2361.17 358.742 2362.24 359.777 2364.59 351.978 C 2362.82 349.385 2363.71 350.075 2361.02 348.784 L 2360.23 350.899 L 2361.54 352.72 L 2360.44 352.295 L 2361.04 352.872 C 2359.09 351.845 2357.91 352.082 2355.7 352.197 C 2359.81 346.551 2363.44 340.899 2367.24 335.053 C 2359.87 335.063 2343.79 335.613 2337.52 334.304 z"/>
<path transform="translate(0,0)" fill="rgb(240,236,235)" d="M 2337.52 334.304 C 2342.48 333.035 2400.35 332.48 2402.39 333.552 C 2404.06 335.96 2403.37 339.139 2403.12 342.158 C 2402.5 339.825 2402.21 336.615 2400.27 335.939 C 2393.27 333.502 2381.12 335.114 2373.47 334.97 C 2369.64 345.711 2365.74 356.428 2361.78 367.119 C 2361.17 358.742 2362.24 359.777 2364.59 351.978 C 2362.82 349.385 2363.71 350.075 2361.02 348.784 L 2360.23 350.899 L 2361.54 352.72 L 2360.44 352.295 L 2361.04 352.872 C 2359.09 351.845 2357.91 352.082 2355.7 352.197 C 2359.81 346.551 2363.44 340.899 2367.24 335.053 C 2359.87 335.063 2343.79 335.613 2337.52 334.304 z"/>
<path transform="translate(0,0)" fill="rgb(1,1,1)" d="M 681.847 282.528 C 684.284 283.978 685.556 286.357 688.437 287.771 C 697.43 292.183 705.681 295.652 711.428 304.378 C 718.139 314.571 718.066 323.239 715.77 334.911 C 725.315 345.628 728.697 356.53 733.72 369.807 C 748.458 377.26 754.368 391.723 762.697 405.293 C 767.915 413.988 773.743 422.302 780.135 430.174 C 786.142 432.307 795.621 433.836 800.68 436.248 C 805.932 438.753 817.989 448.356 819.8 453.979 L 818.687 454.867 C 814.765 454.37 812.775 452.33 809.681 449.877 C 812.518 454.616 818.899 463.815 818.8 468.628 L 817.081 469.105 C 813.603 468.449 812.136 465.132 809.223 462.356 C 809.688 465.393 810.763 469.259 809.304 471.758 L 807.099 471.444 C 803.734 469.496 802.73 464.902 801.327 461.045 C 797.25 456.323 790.998 449.621 784.016 451.329 C 784.64 456.698 791.3 457.362 788.099 463.457 C 783.411 464.135 772.985 452.686 766.468 448.892 C 765.63 446.213 764.823 442.264 764.151 439.44 C 740.63 416.836 714.723 413.768 705.634 382.74 C 698.471 377.687 677.573 352.139 681.737 344.331 C 683.79 344.806 685.579 345.283 687.604 345.87 L 687.371 343.961 C 681.525 336.92 667.599 344.017 660.945 347.319 C 673.733 327.025 682.641 307.075 681.847 282.528 z"/>
<path transform="translate(0,0)" fill="rgb(1,1,1)" d="M 550.695 483.907 C 547.191 484.625 545.998 485.058 542.758 483.39 C 534.711 475.343 541.002 465.56 547.873 458.557 C 568.642 437.386 605.391 428.49 629.69 448.751 C 632.943 451.463 635.683 457.873 633.555 462.043 L 632.483 461.897 L 630.441 459.053 C 630.089 461.923 635.158 474.101 636.259 479.142 C 632.943 495.699 625.666 500.36 609.847 505.554 C 611.274 505.85 611.963 505.995 613.32 506.523 C 607.621 510.938 587.705 509.26 579.664 509.239 L 523.58 509.153 C 535.214 494.217 540.21 490.772 558.593 485.698 L 558.57 485.344 C 556.878 483.516 553.91 484.068 550.695 483.907 z"/>
<path transform="translate(0,0)" fill="rgb(240,236,235)" d="M 550.695 483.907 C 557.825 482.47 564.37 482.934 571.615 483.309 C 567.754 484.053 562.371 485.255 558.593 485.698 L 558.57 485.344 C 556.878 483.516 553.91 484.068 550.695 483.907 z"/>
<path transform="translate(0,0)" fill="rgb(227,2,10)" d="M 2337.52 334.304 C 2343.79 335.613 2359.87 335.063 2367.24 335.053 C 2363.44 340.899 2359.81 346.551 2355.7 352.197 C 2340.96 375.224 2314.2 415.415 2302.56 438.751 C 2291.59 438.49 2280.61 438.488 2269.63 438.745 L 2279.45 335.003 L 2307.29 335.059 C 2306.7 340.381 2304.89 354.079 2304.96 358.788 C 2305.43 365.083 2305.86 371.38 2306.26 377.679 L 2307.63 378.132 C 2312.72 374.815 2313.04 372.496 2316.43 370.776 C 2320.11 365.207 2324.45 357.095 2328.28 350.966 L 2331.07 345.423 C 2333.17 341.69 2335.32 337.983 2337.52 334.304 z"/>
<path transform="translate(0,0)" fill="rgb(240,236,235)" d="M 2304.96 358.788 C 2305.43 365.083 2305.86 371.38 2306.26 377.679 L 2307.63 378.132 C 2312.72 374.815 2313.04 372.496 2316.43 370.776 C 2313.91 376.867 2303.92 392.92 2300.05 398.972 C 2301.4 386.732 2302.87 370.722 2304.96 358.788 z"/>
<path transform="translate(0,0)" fill="rgb(1,1,1)" d="M 119.043 469.744 C 134.433 468.611 150.827 468.375 166.336 468.072 C 235.571 466.716 305.284 463.286 374.501 462.813 C 368.879 470.914 360.176 482.691 355.384 490.911 C 338.029 498.033 327.76 495.979 309.448 495.532 C 290.773 495.129 272.101 494.56 253.436 493.827 C 274.4 489.023 297.418 486.669 318.629 482.765 L 318.596 482.375 C 316.96 480.606 309.35 480.467 305.903 480.004 C 294.135 478.494 261.703 478.122 248.375 477.626 L 119.768 473.321 L 103.075 472.953 C 94.5661 473.542 82.5229 473.132 74.2959 471.516 C 79.0509 470.877 81.1484 470.924 85.955 471.118 L 119.043 469.744 z"/>
<path transform="translate(0,0)" fill="rgb(134,135,134)" d="M 103.075 472.953 C 94.5661 473.542 82.5229 473.132 74.2959 471.516 C 79.0509 470.877 81.1484 470.924 85.955 471.118 C 90.1495 471.496 99.338 472.087 103.075 472.953 z"/>
<path transform="translate(0,0)" fill="rgb(240,236,235)" d="M 305.903 480.004 C 315.597 479.712 325.299 479.897 334.975 480.559 C 330.209 481.294 323.271 482.571 318.629 482.765 L 318.596 482.375 C 316.96 480.606 309.35 480.467 305.903 480.004 z"/>
<path transform="translate(0,0)" fill="rgb(227,2,10)" d="M 316.256 392.543 C 317.342 393.449 324.761 407.258 326.449 410.024 C 325.316 411.282 325.895 410.924 324.238 411.364 C 309.351 409.791 287.362 409.675 271.884 409.052 L 180.573 405.04 C 162.188 404.243 140.906 403.829 122.749 402.184 C 125.783 397.982 131.338 398.768 136.515 398.034 C 195.592 394.736 256.833 395.213 316.256 392.543 z"/>
<path transform="translate(0,0)" fill="rgb(1,1,1)" d="M 316.078 283.817 C 325.598 270.58 340.519 254.917 353.003 244.54 C 414.263 193.622 483.007 170.909 561.888 177.293 L 562.173 178.654 L 560.186 179.488 C 476.973 175.506 383.4 216.844 332.691 283.383 L 316.078 283.817 z"/>
<path transform="translate(0,0)" fill="rgb(1,1,1)" d="M 173.347 439.062 C 215.113 437.511 256.89 436.265 298.675 435.322 C 331.039 434.362 364.744 432.767 396.983 432.966 C 393.152 437.484 387.294 443.992 383.953 448.616 C 313.487 447.132 242.723 443.214 172.551 441.938 L 167.277 440.558 L 173.347 439.062 z"/>
<path transform="translate(0,0)" fill="rgb(227,2,10)" d="M 168.676 327.937 C 213.834 325.958 261.505 323.302 306.63 322.891 C 302.378 329.022 300.754 332.317 297.699 339.018 C 269.267 338.032 240.846 336.752 212.441 335.179 C 204.486 334.773 180.322 334.12 173.254 333.047 C 171.588 332.185 170.377 331.456 168.798 330.471 L 168.676 327.937 z"/>
<path transform="translate(0,0)" fill="rgb(227,2,10)" d="M 288.312 360.651 C 291.381 358.686 300.091 359.975 304.009 360.543 L 306.555 362.975 C 307.451 365.781 308.827 368.866 308.56 371.668 C 305.302 372.12 301.719 372.513 298.565 373.354 L 215.119 369.567 C 217.326 368.549 218.144 368.26 219.918 366.604 L 211.893 364.976 C 233.656 362.368 265.231 362.231 288.312 360.651 z"/>
<path transform="translate(0,0)" fill="rgb(240,236,235)" d="M 288.312 360.651 C 291.381 358.686 300.091 359.975 304.009 360.543 L 306.555 362.975 C 307.451 365.781 308.827 368.866 308.56 371.668 C 305.302 372.12 301.719 372.513 298.565 373.354 C 296.719 370.327 295.788 366.238 294.752 362.764 C 292.298 360.386 292.254 361.041 288.312 360.651 z"/>
<path transform="translate(0,0)" fill="rgb(227,2,10)" d="M 237.969 301.837 C 281.914 299.519 320.839 297.721 364.988 296.94 C 358.904 300.262 349.633 305.022 344.274 308.867 C 309.055 306.808 275.448 304.293 240.168 304.242 L 237.969 301.837 z"/>
<path transform="translate(0,0)" fill="rgb(227,2,10)" d="M 2226.21 412.904 L 2252.83 412.946 C 2251.31 417.9 2246.25 435.432 2243.64 438.52 L 2216.49 438.622 C 2219.79 430.774 2223.16 421.001 2226.21 412.904 z"/>
<path transform="translate(0,0)" fill="rgb(214,29,31)" d="M 139.56 329.02 C 149.262 328.562 158.967 328.201 168.676 327.937 L 168.798 330.471 C 170.377 331.456 171.588 332.185 173.254 333.047 C 163.312 333.042 151.608 332.293 141.545 331.903 C 130.531 332.705 118.178 332.223 107.364 329.98 C 116.886 328.669 129.923 328.739 139.56 329.02 z"/>
<path transform="translate(0,0)" fill="rgb(231,154,157)" d="M 107.364 329.98 C 116.886 328.669 129.923 328.739 139.56 329.02 C 133.655 330.332 129.403 330.342 123.446 330.53 C 128.444 330.723 136.973 330.775 141.545 331.903 C 130.531 332.705 118.178 332.223 107.364 329.98 z"/>
<path transform="translate(0,0)" fill="rgb(214,29,31)" d="M 173.867 366.012 C 185.734 366.074 200.756 364.26 211.893 364.976 L 219.918 366.604 C 218.144 368.26 217.326 368.549 215.119 369.567 C 201.594 368.898 186.515 367.83 173.092 368.041 L 173.867 366.012 z"/>
<path transform="translate(0,0)" fill="rgb(214,29,31)" d="M 92.6268 398.958 C 107.097 398.452 122.077 397.705 136.515 398.034 C 131.338 398.768 125.783 397.982 122.749 402.184 C 116.522 402.645 92.7649 401.419 86.2231 401.167 L 92.6268 398.958 z"/>
<path transform="translate(0,0)" fill="rgb(62,63,62)" d="M 145.454 440.169 C 154.994 439.555 163.792 438.929 173.347 439.062 L 167.277 440.558 L 172.551 441.938 L 162.03 441.918 C 154.123 442.381 148.481 441.983 140.68 441.057 L 140.36 440.168 L 145.454 440.169 z"/>
<path transform="translate(0,0)" fill="rgb(134,135,134)" d="M 162.03 441.918 C 154.123 442.381 148.481 441.983 140.68 441.057 L 140.36 440.168 L 145.454 440.169 C 150.742 440.855 157.191 441.194 162.03 441.918 z"/>
<path transform="translate(0,0)" fill="rgb(241,197,198)" d="M 230.006 304.118 C 223.831 304.417 212.9 303.994 206.721 303.213 C 214.226 301.803 222.227 301.93 229.885 301.802 L 230.006 304.118 z"/>
<path transform="translate(0,0)" fill="rgb(210,98,98)" d="M 70.9147 400.907 L 68.2902 401.013 L 67.5254 400.061 C 72.9316 398.607 75.562 398.856 81.1987 399.022 L 92.6268 398.958 L 86.2231 401.167 L 70.9147 400.907 z"/>
<path transform="translate(0,0)" fill="rgb(231,154,157)" d="M 70.9147 400.907 L 68.2902 401.013 L 67.5254 400.061 C 72.9316 398.607 75.562 398.856 81.1987 399.022 L 70.9147 400.907 z"/>
<path transform="translate(0,0)" fill="rgb(62,63,62)" d="M 561.888 177.293 C 569.088 177.91 572.198 178.409 579.247 179.949 C 573.609 179.981 565.576 180.27 560.186 179.488 L 562.173 178.654 L 561.888 177.293 z"/>
<path transform="translate(0,0)" fill="rgb(231,154,157)" d="M 173.092 368.041 C 170.164 368.191 164.905 368.586 162.655 366.856 C 166.245 365.314 169.939 365.831 173.867 366.012 L 173.092 368.041 z"/>
<path transform="translate(0,0)" fill="rgb(210,98,98)" d="M 229.885 301.802 L 237.969 301.837 L 240.168 304.242 L 230.006 304.118 L 229.885 301.802 z"/>
</svg>