<svg version="1.1" xmlns="http://www.w3.org/2000/svg" style="display: block;" viewBox="0 0 2048 2048" width="1254" height="1254" preserveAspectRatio="none">
<path transform="translate(0,0)" fill="rgb(255,255,255)" d="M 0 0 L 2048 0 L 2048 2048 L 0 2048 L 0 0 z"/>
<path transform="translate(0,0)" fill="rgb(0,0,0)" d="M 1438.41 431.164 C 1461.35 437.838 1471.95 441.484 1484.66 462.889 C 1484.93 457.136 1485.34 451.193 1485.12 445.459 C 1495.1 457.498 1495.61 458.057 1497.53 473.995 C 1499.62 473.087 1500.32 471.334 1501.92 469.168 C 1510.39 474.891 1495.51 493.54 1490.17 497.925 L 1494.51 535.697 C 1491.57 538.368 1488.13 541.319 1485.37 544.111 C 1488.52 553.949 1495.04 570.391 1493.71 579.725 L 1492.44 581.55 C 1489.32 582.004 1487.93 581.45 1484.89 580.743 C 1477.43 583.19 1482.11 589.662 1481.17 593.679 C 1479.61 600.377 1472.95 594.208 1475.96 605.514 C 1474.23 608.592 1471.92 610.018 1469.14 612.232 C 1469.29 625.194 1470.55 628.365 1457.35 633.612 C 1445.59 631.342 1435.11 627.871 1423.8 625.561 C 1432.72 641.966 1423.29 677.085 1418.26 694.173 C 1414.54 707.111 1410.1 719.83 1404.96 732.271 C 1395.42 754.718 1386.95 769.362 1380.85 793.534 C 1359.04 813.979 1336.63 833.916 1312.14 851.075 C 1307.73 854.166 1302.72 857.41 1298.52 860.73 C 1303.33 858.529 1308.6 856.263 1313.24 853.798 C 1298.97 882.306 1295.21 887.91 1262.79 888.943 C 1265.4 891.452 1267.8 893.111 1268.71 896.501 C 1266.75 897.842 1266.63 897.726 1264.03 897.256 C 1248.76 894.497 1234.64 891.701 1218.99 892.039 C 1179.28 892.896 1141.92 908.657 1103.02 915.211 C 1093.65 916.789 1084.25 918.157 1074.77 919.411 C 1091.79 921.146 1133.6 917.45 1153.59 914.467 C 1191.36 908.83 1257.34 883.441 1289.93 916.613 C 1291.77 918.484 1293.22 920.807 1292.98 923.444 C 1289.67 924.208 1283.41 921.118 1279.68 919.781 C 1306.21 937.372 1309.8 941.079 1330.33 965.623 C 1300.48 949.866 1270.88 942.505 1237.78 953.403 C 1201.25 965.431 1129.74 1012.19 1158.59 1058.12 C 1148.03 1049.73 1137.94 1041.09 1127.64 1032.4 C 1119.61 1025.63 1110.93 1019.63 1103.52 1012.19 C 1106.38 1009.56 1109.6 1006.81 1112.04 1003.84 C 1076.06 1024.5 1041.33 1068.32 1013.51 1099.18 C 993.639 1102.71 984.925 1099.87 965.786 1093.97 C 953.247 1104.51 942.412 1113.29 929.183 1122.95 L 891.679 1122.92 C 889.856 1129.21 887.951 1136.39 885.917 1142.54 C 881.199 1133.87 877.548 1128.39 867.621 1125.29 C 850.386 1119.93 791.567 1123.28 769.568 1122.89 C 786.651 1107.38 806.592 1096.32 830.041 1094.09 L 823.361 1105.31 L 833.745 1101.47 C 842.868 1098.14 855.355 1089.41 864.276 1084.38 C 872.154 1079.93 880.83 1077.07 887.908 1073.21 C 871.653 1076.93 856.199 1078.17 840.914 1081.4 C 849.249 1069.33 859.879 1054.82 867.566 1042.63 L 861.441 1032.02 C 897.281 1017.59 935.105 1028.72 964.495 1052.65 C 988.058 1071.83 990.302 1074.12 1020.93 1076.99 C 1001.32 1068.83 997.225 1062.37 981.972 1048.05 C 961.756 1029.07 941.708 1017.47 914.389 1012.15 C 917.194 1011.06 926.806 1007.76 928.133 1006.26 L 925.875 1005.73 C 918.566 1005.61 883.782 1012.21 874.846 1013.89 C 884.91 1001.62 896.049 986.326 906.373 975.065 C 912.248 973.593 918.154 972.244 924.086 971.019 C 934.913 956.163 944.077 944.661 956.514 930.957 C 976.27 909.188 998.315 898.324 1021.3 881.847 C 984.801 895.109 966.298 905.124 937.248 931.1 C 952.191 907.176 970.942 883.304 992.22 864.593 C 987.764 872.658 983.633 880.897 979.836 889.292 C 996.201 879.753 995.929 875.175 1008.06 864.686 C 1029.35 846.279 1067.02 840.319 1094.2 841.189 C 1071.83 830.799 1035.53 834.883 1012.85 842.553 C 1037.19 815.464 1056.75 806.972 1093.03 817.513 C 1088.77 814.012 1085.07 811.076 1080.61 807.797 C 1083.46 807.823 1092.86 807.859 1095.17 808.5 C 1113.45 813.572 1123.23 833.281 1139.89 843.497 C 1157.74 854.447 1173.55 859.355 1193.53 864.373 C 1189.95 862.391 1185.99 860.103 1182.25 858.441 C 1165.8 851.129 1152.44 836.572 1137.73 827.271 C 1118.01 814.798 1088.41 799.367 1064.96 798.844 C 1068.94 773.358 1075.68 778.961 1095.59 768.337 C 1101.84 765.002 1113.84 754.703 1120.1 749.982 C 1113.11 753.008 1105.79 756.327 1098.75 759.147 C 1107.73 733.336 1124.55 698.32 1135.75 672.424 C 1130.22 702.137 1124.23 731.765 1117.8 761.298 C 1137.23 749.558 1153.79 738.977 1170.05 722.569 C 1156.15 730.807 1148.14 734.844 1133.02 741.292 C 1138.66 719.309 1141.83 706.541 1144.97 684.25 C 1150.1 690.788 1157.11 698.48 1165.73 698.177 C 1214.82 696.449 1250.14 632.429 1253.9 589.028 C 1254.91 577.392 1252.14 566.708 1248.27 557.432 C 1266.55 559.869 1282.78 564.68 1300.46 567.561 C 1284.84 622.074 1289.31 666.623 1321.78 713.437 C 1363.3 709.355 1380.97 692.308 1400.68 657.195 C 1378.58 684.086 1363.52 694.473 1328.23 699.312 C 1305.53 662.813 1299.83 628.359 1309.61 585.774 C 1310.58 581.66 1311.68 577.577 1312.91 573.533 L 1332.81 576.199 L 1342.83 562.13 C 1338.84 550.901 1334.47 537.841 1329.75 526.929 C 1325.9 518.056 1329.73 507.17 1332.86 499.104 C 1333.81 496.681 1334.78 494.267 1335.77 491.865 C 1332.83 488.971 1329.9 492.902 1328.63 489.499 C 1335.02 477.659 1344.4 468.7 1355.76 461.573 L 1343.73 456.282 C 1363.51 448.032 1376.54 444.021 1398.27 443.974 C 1390.99 439.681 1387.58 437.842 1379.81 434.676 C 1411.08 430.867 1419.9 431.105 1449.24 443.673 C 1445.67 439.236 1442.52 435.153 1438.41 431.164 z"/>
<path transform="translate(0,0)" fill="rgb(229,1,6)" d="M 924.086 971.019 C 955.464 966.858 991.565 958.158 1023.8 953.262 C 997.888 965.108 950.355 988.952 925.823 1003.84 L 925.875 1005.73 C 918.566 1005.61 883.782 1012.21 874.846 1013.89 C 884.91 1001.62 896.049 986.326 906.373 975.065 C 912.248 973.593 918.154 972.244 924.086 971.019 z"/>
<path transform="translate(0,0)" fill="rgb(229,1,6)" d="M 1254.59 942.16 C 1191.47 945.745 1125.09 977.261 1062.76 989.525 C 1052.61 991.522 1037.38 998.671 1027.46 998.408 C 1036.17 994.175 1051.85 988.712 1061.79 984.532 C 1089.63 972.708 1117.69 961.418 1145.96 950.667 C 1153.52 947.853 1175.1 939.512 1182.39 938.813 C 1206.27 936.522 1233.21 936.015 1256.89 938.698 L 1254.59 942.16 z"/>
<path transform="translate(0,0)" fill="rgb(255,255,255)" d="M 1338 796.065 L 1338.26 796.27 L 1338.24 797.504 C 1303.24 826.16 1275.03 842.603 1229.43 849.802 L 1228.79 848.974 C 1238.04 845.123 1247.05 842.864 1257.11 838.448 C 1285.23 826.112 1311.83 812.009 1338 796.065 z"/>
<path transform="translate(0,0)" fill="rgb(201,17,1)" d="M 1256.89 938.698 C 1263.84 939.968 1271.04 941.173 1277.89 942.821 C 1269.39 943.054 1263.12 942.721 1254.59 942.16 L 1256.89 938.698 z"/>
<path transform="translate(0,0)" fill="rgb(0,0,0)" d="M 1422.7 1390.83 L 1515.16 1390.95 C 1507.12 1401.96 1500.09 1410.58 1491.31 1421.02 C 1463.22 1454.55 1431.28 1484.65 1396.16 1510.71 C 1279.55 1597.97 1132.98 1635.19 988.867 1614.13 C 842.105 1590.73 710.431 1510.56 622.263 1390.92 L 698.227 1390.83 C 710.536 1407.31 730.292 1427.61 745.514 1441.87 C 831.397 1522.3 949.403 1569.52 1067.61 1564.61 C 1174.3 1560.18 1281.99 1516.15 1364.14 1448.17 C 1386.7 1429.5 1402.95 1412.37 1422.7 1390.83 z"/>
<path transform="translate(0,0)" fill="rgb(0,0,0)" d="M 1099.43 586.673 C 1124.34 563.122 1145.63 545.419 1182.17 546.009 C 1191.88 546.166 1208.81 549.121 1216.79 554.666 L 1216.33 555.589 C 1213.4 556.415 1210.9 556.45 1209.63 558.369 C 1217.58 560.24 1232.43 552.919 1236.78 561.75 C 1242.92 574.216 1240.84 592.69 1237.2 605.58 C 1228.12 637.731 1206.18 671.845 1173.64 683.763 C 1171.01 671.679 1168.95 654.401 1158.15 647.269 C 1147.32 640.129 1132.66 641.863 1120.96 645.584 C 1097.47 653.057 1069.24 659.977 1044.5 658.138 C 1016.18 656.033 1009.93 666.219 987.099 679.432 C 962.638 693.587 929.796 693.645 902.733 700.088 C 886.492 703.146 871.461 709.918 855.646 714.184 C 849.75 715.775 839.087 713.558 832.844 713.901 C 819.006 714.662 790.288 724.033 781.297 733.455 C 781.489 737.306 780.661 736.136 782.661 738.074 C 790.128 735.053 796.756 730.535 804.073 727.23 C 844.086 709.153 883.451 734.57 898.67 772.486 C 901.269 779.109 902.943 786.059 903.643 793.14 C 883.726 788.189 872.617 781.082 853.971 773.771 C 823.317 761.754 786.234 755.172 755.873 771.346 L 756.587 769.891 C 759.902 763.207 761.868 760.632 766.374 754.667 L 765.357 753.273 C 757.737 742.738 761.925 737.107 759.831 724.363 C 758.71 733.347 758.368 743.462 758.801 752.065 C 755.417 759.346 751.798 767.146 747.71 774.167 C 743.419 781.539 744.796 788.84 741.034 795.054 C 735.504 804.187 750.363 835.322 734.99 831.489 C 732.524 830.874 728.189 817.405 724.621 812.572 C 724.142 803.345 724.116 800.147 720.074 791.51 C 721.316 787.751 722.409 782.149 724.949 779.999 C 726.636 781.904 726.643 783.662 727.1 786.203 L 728.644 783.276 C 726.562 775.221 726.169 772.833 725.49 764.612 C 730.382 755.56 737.764 746.287 743.872 737.865 C 754.73 722.893 755.528 708.492 777.047 713.131 C 797.635 702.578 816.199 691.092 837.352 681.144 C 897.657 652.781 919.97 611.737 991.6 610.938 C 987.896 613.598 984.133 616.176 980.316 618.671 C 994.124 613.373 1008.54 611.734 1018.18 607.915 L 1004.75 606.728 C 1021.2 598.653 1031.78 595.864 1047.82 589.868 C 1073.6 580.228 1081.09 573.746 1109.41 572.084 C 1105.92 576.945 1102.5 581.529 1099.43 586.673 z"/>
<path transform="translate(0,0)" fill="rgb(172,174,178)" d="M 728.644 783.276 C 730.022 789.719 731.517 796.135 733.13 802.523 C 729.858 796.314 728.633 793.327 727.1 786.203 L 728.644 783.276 z"/>
<path transform="translate(0,0)" fill="rgb(229,1,6)" d="M 1061.11 373.417 C 1070.48 372.438 1089.05 372.617 1098.58 372.675 C 1182.73 373.188 1288.78 394.561 1363.33 434.538 C 1177.13 382.289 1004.82 388.835 840.237 497.119 C 788.281 533.174 743.935 574.476 707.198 626.263 C 684.117 625.969 660.428 626.249 637.302 626.283 C 652.143 603.445 667.324 581.044 685.123 560.37 C 782.493 447.277 913.346 384.901 1061.11 373.417 z"/>
<path transform="translate(0,0)" fill="rgb(0,0,0)" d="M 1437.87 639.638 C 1443.65 643.615 1445.97 646.838 1450.32 652.164 C 1480.43 661.564 1498.4 681.297 1503.71 712.995 C 1506.37 728.924 1502.9 742.703 1499.53 758.269 L 1500.52 758.671 C 1501.89 756.254 1502.12 755.656 1503.95 753.615 C 1515.64 761.852 1528.72 805.181 1534.86 820.101 C 1563.75 840.992 1567.16 852.831 1583.52 884.363 C 1594.02 904.596 1611.24 931.739 1626.31 948.664 C 1635.58 951.744 1651.34 955.694 1659.69 959.072 C 1670.66 963.506 1704.2 988.116 1703.46 1000.55 L 1701.84 1001 C 1691.94 999.104 1685.7 992.592 1678.06 986.387 C 1684.22 994.026 1698.79 1016.45 1701.26 1025.45 L 1700.07 1027.4 C 1690.4 1031.84 1681.54 1014.96 1676.78 1008 C 1679.38 1014.53 1686.36 1028.76 1681.23 1034.89 L 1679.04 1034.69 C 1671.7 1028.98 1670.72 1024.34 1667.33 1015.72 C 1666.28 1013.95 1665.19 1012.2 1664.08 1010.47 C 1655.13 996.634 1643.44 993.028 1628.34 989.818 C 1633.83 996.539 1642.5 1005.99 1642.41 1014.93 C 1641.37 1016.81 1641.75 1016.99 1640.09 1017.69 C 1637.69 1018.68 1634.98 1018.6 1632.64 1017.49 C 1625.61 1014.07 1622.84 1005.45 1618.06 1000.92 C 1612.83 995.966 1603.12 993.279 1599.13 986.073 C 1593.9 976.616 1594.41 968.484 1586.57 960.131 C 1554.18 925.622 1493.84 904.857 1482.04 855.521 L 1483.09 854.873 L 1488.41 856.847 C 1483.92 850.825 1475.65 844.901 1470.33 838.718 C 1451.1 816.377 1440.55 793.316 1432.25 765.487 C 1439.99 767.924 1443.02 769.659 1450.23 773.559 C 1444.17 767.133 1440.96 764.526 1433.72 759.741 C 1417.1 762.751 1412.12 765.793 1397.2 773.641 C 1421.41 730.804 1438.93 690.283 1437.87 639.638 z"/>
<path transform="translate(0,0)" fill="rgb(0,0,0)" d="M 1266.67 961.374 C 1290.59 957.343 1331.42 969.526 1346.84 989.265 C 1353.61 997.947 1350.93 1006.7 1349.04 1016.54 C 1345.91 1008.75 1344.64 1004.83 1339.9 997.801 C 1351.66 1032.37 1369.06 1064.79 1331.52 1089.65 C 1318.9 1098 1307.63 1101.38 1293.98 1107.22 C 1302.83 1105.57 1311.6 1103.33 1320.36 1101.2 C 1309.84 1108.58 1297.56 1116.06 1286.65 1122.95 L 1193.75 1123 L 1120.56 1122.99 C 1132.86 1113.16 1134.85 1106.02 1144.55 1094.41 C 1166.04 1068.71 1196.58 1063.39 1227.14 1056.72 C 1211.01 1055.3 1199.78 1056.11 1183.87 1058.23 C 1153.71 1062.25 1160.67 1030.24 1174.07 1014.52 C 1198.59 985.742 1228.9 965.77 1266.67 961.374 z"/>
<path transform="translate(0,0)" fill="rgb(229,1,6)" d="M 304.791 1140.76 L 357.903 1140.81 C 337.755 1194.78 317.274 1248.63 296.461 1302.35 C 282.056 1302.08 266.973 1302.36 252.517 1302.42 C 257.586 1290.53 262.301 1277.96 267.004 1265.87 L 281.989 1227.72 C 261.874 1252.5 244.843 1276.95 225.879 1302.33 C 217.982 1302.24 209.874 1302.48 201.958 1302.62 C 202.18 1279.16 202.763 1248.36 203.904 1225.18 C 193.757 1248.19 182.861 1278.34 173.35 1302.27 L 129.494 1302.21 L 192.437 1140.77 L 244.063 1140.77 C 243.793 1168.46 242.35 1196.18 242.453 1223.82 C 262.817 1195.82 283.599 1168.13 304.791 1140.76 z"/>
<path transform="translate(0,0)" fill="rgb(0,0,0)" d="M 1065.92 1141.14 C 1081.32 1139.95 1135.32 1138.47 1146.17 1144.38 C 1149.91 1146.41 1152.47 1149.92 1153.63 1153.98 C 1154.87 1158.33 1154.31 1162.81 1153.19 1167.12 C 1148.58 1184.76 1139.88 1202.9 1133.34 1220 C 1126.48 1237.94 1118.62 1263.83 1109.51 1280.12 C 1102.86 1292 1091.24 1298.54 1078.5 1301.96 C 1065.24 1302.7 1009.58 1304.24 999.354 1299.4 C 995.225 1297.4 992.147 1293.73 990.898 1289.32 C 990.049 1286.41 989.852 1282 990.818 1279.08 C 1000.2 1251.93 1010.83 1225.04 1021.29 1198.27 C 1031.9 1171.11 1034.1 1149.46 1065.92 1141.14 z"/>
<path transform="translate(0,0)" fill="rgb(255,255,255)" d="M 1073.61 1176.96 C 1084.56 1176.63 1095.9 1176.9 1106.88 1177 C 1103.18 1188.72 1077.14 1259.45 1071.73 1265.99 C 1060.83 1266.69 1048.55 1266.27 1037.6 1265.88 C 1041.07 1253.49 1067.82 1183.08 1073.61 1176.96 z"/>
<path transform="translate(0,0)" fill="rgb(0,0,0)" d="M 785.823 1141.15 C 806.021 1139.69 827.391 1141.44 847.635 1140.69 C 861.918 1140.17 878.188 1148.6 872.191 1165.11 C 858.008 1204.16 843.508 1244.06 826.7 1282 C 822.13 1292.32 807.357 1299.05 796.98 1301.99 C 782.382 1303.03 729.279 1304.67 718.229 1299.21 C 714.162 1297.2 711.31 1293.26 710.089 1288.94 C 709.323 1286.24 709.106 1283.22 709.711 1280.47 C 713.391 1263.71 722.043 1246.17 728.22 1230.11 C 735.963 1209.99 746.364 1176.63 757.282 1159.14 C 763.503 1149.18 774.843 1143.87 785.823 1141.15 z"/>
<path transform="translate(0,0)" fill="rgb(255,255,255)" d="M 793.057 1177.01 C 804.09 1176.63 815.134 1176.6 826.169 1176.93 C 819.471 1192.59 796.507 1257.24 790.38 1265.91 C 779.08 1266.39 767.765 1266.38 756.466 1265.87 C 760.404 1253.44 787.663 1182.55 793.057 1177.01 z"/>
<path transform="translate(0,0)" fill="rgb(0,0,0)" d="M 904.229 1140.81 C 923.329 1140.74 985.86 1138.2 1000.16 1142.81 C 1004.79 1144.3 1007.64 1146.47 1009.68 1150.97 C 1012.57 1157.32 1011.58 1164.16 1009.27 1170.51 C 1000.81 1193.84 999.3 1208.41 975.288 1219.69 C 992.371 1231.52 980.844 1246.9 975.952 1262.78 C 971.294 1277.9 965.606 1286.73 952.753 1296.05 C 937.395 1304.48 917.127 1302.51 899.907 1302.45 L 841.703 1302.23 C 861.963 1249.93 882.673 1191.95 904.229 1140.81 z"/>
<path transform="translate(0,0)" fill="rgb(255,255,255)" d="M 908.325 1238.27 C 933.369 1238.63 953.912 1232.76 931.205 1266.15 C 920.718 1266.48 908.726 1266.24 898.115 1266.26 C 901.385 1256.88 904.789 1247.55 908.325 1238.27 z"/>
<path transform="translate(0,0)" fill="rgb(255,255,255)" d="M 932.207 1176.76 C 942.988 1176.65 953.771 1176.75 964.549 1177.07 C 961.994 1184.53 957.891 1198.18 952.935 1203.95 C 943.047 1204.72 931.894 1204.32 921.884 1204.2 L 932.207 1176.76 z"/>
<path transform="translate(0,0)" fill="rgb(0,0,0)" d="M 1634.87 1141.15 C 1654.11 1139.65 1674.71 1141.55 1693.97 1140.63 C 1708.03 1139.96 1726.78 1147.06 1720.87 1164.44 C 1707.56 1203.59 1691.91 1242.82 1676.51 1281.2 C 1672.41 1291.4 1656.61 1299.24 1646.43 1301.97 C 1628.19 1302.82 1585.78 1304.72 1568.18 1299.5 C 1551.17 1294.46 1564.74 1266.44 1569.2 1254.26 C 1574.98 1238.35 1580.91 1222.49 1586.98 1206.69 C 1589.18 1200.91 1591.55 1194.82 1593.7 1189.06 C 1602.93 1164.29 1606.27 1148.52 1634.87 1141.15 z"/>
<path transform="translate(0,0)" fill="rgb(255,255,255)" d="M 1641.51 1177.08 C 1653.07 1176.65 1663.42 1176.75 1674.97 1176.94 C 1670.4 1190.84 1645.31 1259.02 1639.9 1266.19 C 1631.59 1266.4 1615.81 1267.55 1608.63 1264.75 L 1608.01 1263.28 C 1610.52 1254.02 1637.07 1182.61 1641.51 1177.08 z"/>
<path transform="translate(0,0)" fill="rgb(0,0,0)" d="M 1275.59 1140.8 C 1289.71 1140.76 1303.82 1140.78 1317.94 1140.88 C 1299.07 1194.01 1276.74 1249.67 1256.29 1302.43 C 1242.03 1302.36 1227.77 1302.35 1213.5 1302.42 C 1210.96 1279.49 1202.81 1241.16 1198.36 1217.42 C 1187.7 1245.83 1176.84 1274.15 1165.76 1302.4 L 1123.59 1302.34 C 1128.53 1290.82 1133.43 1276.73 1138.16 1264.71 L 1185.83 1140.8 L 1228.67 1140.73 C 1231.86 1167.82 1238.88 1198.89 1243.16 1226.35 C 1253.6 1197.69 1264.41 1169.18 1275.59 1140.8 z"/>
<path transform="translate(0,0)" fill="rgb(0,0,0)" d="M 1477.19 1140.75 C 1492.9 1140.72 1563.07 1139.42 1572.67 1142.75 C 1577.38 1144.42 1581.15 1148.03 1583.04 1152.66 C 1588.88 1166.78 1570.18 1200.95 1565.49 1215.94 C 1561.03 1230.19 1549.51 1237.98 1535.91 1243.3 C 1537.53 1262.95 1538.88 1282.61 1539.97 1302.29 L 1497.06 1302.17 L 1496.65 1276.75 C 1496.16 1266.7 1496.13 1256.36 1495.98 1246.28 L 1479.03 1246.42 C 1472.45 1265.23 1465.47 1283.89 1458.09 1302.4 C 1444.6 1302.09 1430.15 1302.36 1416.58 1302.36 C 1419.28 1294.56 1422.16 1286.61 1425.23 1278.95 C 1443.51 1233.42 1459.12 1186.29 1477.19 1140.75 z"/>
<path transform="translate(0,0)" fill="rgb(255,255,255)" d="M 1505.78 1176.75 C 1516.69 1176.67 1527.2 1176.48 1538.11 1177.14 C 1535.6 1185.77 1529.46 1203.89 1524.42 1210.45 C 1515.07 1211.11 1502.62 1210.82 1493.04 1210.86 C 1497.38 1199.53 1501.63 1188.16 1505.78 1176.75 z"/>
<path transform="translate(0,0)" fill="rgb(0,0,0)" d="M 1361.56 1141.17 C 1380.9 1139.87 1401.24 1140.98 1420.64 1140.56 C 1464.03 1139.62 1447.43 1170.37 1438.23 1194.85 L 1396.27 1194.93 C 1398.62 1189.41 1400.98 1182.64 1403.13 1176.94 C 1395 1176.73 1377.42 1175.66 1370.46 1177.81 C 1364.68 1183.09 1338.69 1254.14 1334.73 1265.87 C 1346.5 1266.38 1357.11 1266.27 1368.88 1266.11 C 1372.35 1259.73 1375.44 1250.94 1378.12 1244 L 1359.06 1243.79 C 1363.34 1232.81 1367.46 1221.78 1371.4 1210.68 L 1386.54 1210.7 C 1401.71 1210.5 1416.88 1210.54 1432.05 1210.85 L 1421.39 1239.66 C 1396.13 1308.08 1390.09 1303.03 1316.99 1302.59 C 1296.08 1302.46 1280.95 1296.4 1289.4 1273.9 C 1303.27 1236.95 1317.08 1199.1 1332.23 1162.66 C 1336.62 1152.13 1351.32 1144.3 1361.56 1141.17 z"/>
<path transform="translate(0,0)" fill="rgb(229,1,6)" d="M 419.379 1140.8 L 473.202 1140.75 C 467.521 1194.3 460.349 1248.71 455.477 1302.24 L 410.488 1302.22 C 412.367 1293.3 413.699 1283.18 415.094 1274.1 C 407.429 1274.04 376.305 1272.64 372.001 1275.6 C 366.88 1284.09 360.13 1293.97 354.658 1302.38 L 309.111 1302.24 C 342.881 1249.74 383.198 1191.6 419.379 1140.8 z"/>
<path transform="translate(0,0)" fill="rgb(255,255,255)" d="M 426.544 1190.95 L 427.108 1191.27 C 427.206 1197.32 421.792 1229.57 420.594 1237.45 C 413.291 1237.8 405.643 1237.67 398.304 1237.66 C 397.235 1236.93 397.722 1237.48 397.355 1235.67 C 406.956 1220.68 416.686 1205.77 426.544 1190.95 z"/>
<path transform="translate(0,0)" fill="rgb(229,1,6)" d="M 661.168 1140.7 L 713.937 1140.83 C 710.501 1173.52 706.721 1206.16 702.597 1238.76 C 700.078 1259.43 696.934 1281.77 695.507 1302.43 C 680.895 1302.18 666.28 1302.13 651.667 1302.26 C 653.592 1293.93 655.004 1282.87 656.347 1274.24 C 648.936 1274.07 641.524 1273.94 634.111 1273.87 C 627.383 1273.83 617.22 1272.56 613.112 1276.63 C 607.363 1285.17 601.688 1293.75 596.086 1302.39 L 551.765 1302.06 C 563.417 1282.93 579.808 1260.08 592.63 1241.33 L 661.168 1140.7 z"/>
<path transform="translate(0,0)" fill="rgb(255,255,255)" d="M 668.355 1190.74 C 669.237 1195.89 663.014 1229.83 661.727 1237.4 L 639.636 1237.52 C 639.271 1234.48 665.077 1195.7 668.355 1190.74 z"/>
<path transform="translate(0,0)" fill="rgb(0,0,0)" d="M 316.598 1027.11 L 674.874 1017.37 C 728.706 1016 789.658 1012.83 842.782 1013.09 C 830.773 1030.15 816.457 1053.62 804.628 1069.24 C 798.275 1071.76 784.331 1077.82 778.214 1078.09 C 760.837 1078.83 741.723 1077.27 724.213 1076.9 L 602.282 1074.62 C 659.114 1064.68 716.044 1055.33 773.065 1046.54 C 753.918 1045.61 734.618 1045.09 715.452 1044.56 C 579.715 1040.85 443.648 1032.71 307.954 1029.08 L 316.598 1027.11 z"/>
<path transform="translate(0,0)" fill="rgb(229,1,6)" d="M 490.653 1140.82 L 537.036 1140.73 C 538.008 1159.23 539.713 1177.48 540.086 1196.02 C 554.492 1177.44 569.127 1159.04 583.989 1140.82 L 634.318 1140.8 C 612.835 1164.22 591.85 1188.1 571.377 1212.41 C 562.514 1222.67 548.137 1237.52 542.994 1249.62 C 535.739 1266.68 529.134 1285.14 522.697 1302.6 C 509.099 1301.99 493.535 1302.29 479.775 1302.28 C 487.401 1281.74 494.64 1261.29 502.889 1240.98 C 501.042 1230.78 499.675 1215.1 498.411 1204.46 L 490.653 1140.82 z"/>
<path transform="translate(0,0)" fill="rgb(229,1,6)" d="M 1917.37 1180.01 L 1947.74 1180.04 C 1937.52 1209.22 1927.46 1238.46 1917.56 1267.76 C 1915.62 1273.46 1907.72 1298.51 1905.79 1301.71 L 1903.25 1302.21 L 1874.45 1302.49 C 1873.64 1285.74 1869.16 1260.79 1867.35 1242.86 C 1860.8 1262.51 1853.14 1282.89 1846.12 1302.45 C 1835.88 1302.32 1825.34 1302.42 1815.07 1302.42 C 1828.51 1262.58 1844.43 1220.09 1858.52 1180.02 L 1890.05 1180 C 1892.54 1195.75 1896.72 1222.47 1897.48 1237.81 L 1917.37 1180.01 z"/>
<path transform="translate(0,0)" fill="rgb(0,0,0)" d="M 782.074 768.271 C 833.947 764.1 858.063 784.917 904.096 798.366 C 904.205 807.262 904.198 813.171 903.112 821.912 C 884.97 820.191 874.599 822.487 856.747 826.656 C 826.355 834.797 776.416 846.772 747.348 833.215 C 743.923 813.911 744.471 798.084 751.736 779.924 C 761.016 773.263 771.025 770.281 782.074 768.271 z"/>
<path transform="translate(0,0)" fill="rgb(0,0,0)" d="M 1124.06 420.42 C 1143.22 419.264 1222.47 420.175 1235.79 426.395 C 1229.45 427.433 1200.48 424.888 1191.9 424.735 C 1072.48 422.372 955.544 458.983 858.791 529.024 C 836.576 545.433 820.507 560.321 800.747 579.387 C 786.131 594.082 772.533 609.755 760.047 626.297 L 731.055 626.102 C 737.482 617.408 744.245 608.967 751.328 600.799 C 827.745 512.359 931.658 452.158 1046.39 429.857 C 1073.23 424.598 1096.92 422.342 1124.06 420.42 z"/>
<path transform="translate(0,0)" fill="rgb(0,0,0)" d="M 876.577 952.455 L 889.262 952.045 C 880.801 962.207 872.423 972.437 864.129 982.736 L 448.163 967.549 C 442.654 967.399 424.417 967.141 419.992 965.745 C 433.158 964.072 457.438 964.073 471.61 963.635 L 573.064 960.699 L 876.577 952.455 z"/>
<path transform="translate(0,0)" fill="rgb(229,1,6)" d="M 332.289 882.974 C 368.216 883.379 409.019 881.37 445.294 880.421 L 637.941 875.503 C 672.565 874.61 708.14 873.078 742.694 872.864 C 752.244 888.362 762.233 896.882 777.931 906.08 C 760.537 904.384 740.192 904.156 722.522 903.4 L 634.494 899.296 L 324.675 885.084 L 332.289 882.974 z"/>
<path transform="translate(0,0)" fill="rgb(229,1,6)" d="M 1754.13 1179.97 L 1786.13 1179.96 C 1783.1 1206 1779.81 1232 1776.23 1257.97 C 1790.84 1233.23 1805.61 1205.25 1819.57 1180.01 L 1851.81 1180.04 C 1846.73 1189.55 1837.91 1203.02 1832.1 1212.49 C 1813.95 1242.04 1796.51 1272.02 1779.82 1302.42 L 1743.25 1302.37 C 1746.67 1263.08 1752.26 1219.04 1754.13 1179.97 z"/>
<path transform="translate(0,0)" fill="rgb(0,0,0)" d="M 881.593 827.299 C 888.572 826.486 894.613 826.832 901.617 827.032 C 891.861 861.06 861.038 890.997 825.783 897.164 C 806.288 900.574 795.729 897.392 779.844 886.251 C 763.992 873.579 754.145 859.728 748.905 840.063 C 789.483 855.562 841.317 833.298 881.593 827.299 z"/>
<path transform="translate(0,0)" fill="rgb(229,1,6)" d="M 389.628 742.066 C 420.538 741.858 451.863 740.139 482.821 739.096 L 625.484 734.568 C 653.572 733.602 683.446 732.085 711.421 732.062 C 706.21 740.985 702.179 748.382 699.177 758.347 L 383.299 744.161 L 389.628 742.066 z"/>
<path transform="translate(0,0)" fill="rgb(0,0,0)" d="M 854.534 721.862 C 878.888 722.935 904.854 739.615 918.245 759.978 C 946.315 802.664 933.47 863.474 891.009 891.703 C 866.591 907.936 841.154 909.763 812.929 903.829 C 827.983 901.798 833.112 901.418 846.912 896.02 C 849.068 895.131 851.202 894.19 853.313 893.199 C 880.637 880.229 897.086 856.044 907.078 828.386 C 923.104 836.347 920.458 844.31 918.397 860.152 C 924.926 843.529 927.936 831.292 908.457 823.336 C 909.222 815.367 909.266 806.431 909.482 798.359 C 916.155 797.744 925.443 796.409 927.065 788.914 L 925.87 788.398 C 921.331 790.77 917.596 793.221 912.58 793.161 C 903.927 788.093 906.497 744.366 854.534 721.862 z"/>
<path transform="translate(0,0)" fill="rgb(229,1,6)" d="M 782.41 658.549 C 799.374 657.95 816.347 657.674 833.322 657.723 C 827.38 660.854 796.166 677.998 791.411 678.176 C 773.808 678.838 747.254 677.214 729.286 676.504 L 561.753 669.718 C 544.829 668.197 521.884 669.427 505.816 667.1 C 510.046 666.016 523.934 665.865 529.211 665.66 C 547.439 664.929 565.671 664.319 583.906 663.83 L 782.41 658.549 z"/>
<path transform="translate(0,0)" fill="rgb(229,1,6)" d="M 851.256 1472.78 C 863.964 1480.06 877.577 1488.66 890.536 1494.94 C 950.14 1523.83 1013.43 1539.49 1079.76 1539.92 C 1091.59 1540 1100.25 1540.01 1112.25 1538.5 C 1115.98 1538.02 1131.38 1536.29 1134.33 1536.48 C 1119.76 1540.97 1101.55 1542.74 1086.25 1544.26 C 1004.01 1552.46 927.025 1533.42 854.443 1495.15 C 846.862 1491.18 839.431 1486.93 832.165 1482.4 C 838.447 1479.3 845.666 1476.76 851.256 1472.78 z"/>
<path transform="translate(0,0)" fill="rgb(0,0,0)" d="M 727.141 1390.95 L 756.431 1390.75 C 786.471 1426.24 812.717 1446.99 851.256 1472.78 C 845.666 1476.76 838.447 1479.3 832.165 1482.4 C 805.802 1466.97 742.916 1416.71 727.141 1390.95 z"/>
<path transform="translate(0,0)" fill="rgb(229,1,6)" d="M 492.462 811.094 C 556.528 811.012 630.121 807.348 694.635 804.854 C 696.456 811.413 698.136 817.691 700.398 824.119 C 654.482 822.161 608.581 819.877 562.697 817.268 C 538.668 815.986 512.414 814.134 488.503 813.932 C 479.526 814.232 472.312 813.659 463.404 813.021 C 472.727 810.981 482.951 810.88 492.462 811.094 z"/>
<path transform="translate(0,0)" fill="rgb(231,116,115)" d="M 463.404 813.021 C 472.727 810.981 482.951 810.88 492.462 811.094 L 482.329 812.478 L 488.503 813.932 C 479.526 814.232 472.312 813.659 463.404 813.021 z"/>
<path transform="translate(0,0)" fill="rgb(229,1,6)" d="M 1694.68 1272.87 C 1704.69 1272.85 1714.83 1272.62 1724.85 1272.48 C 1721.32 1281.41 1717.54 1293.39 1714.36 1302.59 C 1705.04 1302.12 1694.5 1302.37 1685.07 1302.38 C 1688.43 1292.72 1691.54 1282.64 1694.68 1272.87 z"/>
<path transform="translate(0,0)" fill="rgb(0,0,0)" d="M 1148.82 649.701 C 1155.59 651.788 1158.76 654.031 1164.15 658.503 C 1167.51 667.154 1169.2 674.407 1170.64 683.482 C 1151.01 687.234 1148.68 663.097 1148.82 649.701 z"/>
<path transform="translate(0,0)" fill="rgb(75,75,75)" d="M 292.381 1028.26 C 301.641 1027.38 307.361 1026.93 316.598 1027.11 L 307.954 1029.08 C 302.178 1029.27 298.071 1028.81 292.381 1028.26 z"/>
<path transform="translate(0,0)" fill="rgb(231,116,115)" d="M 383.299 744.161 C 380.415 744.187 375.596 744.293 373.16 743.104 C 379.059 741.533 383.539 741.97 389.628 742.066 L 383.299 744.161 z"/>
<path transform="translate(0,0)" fill="rgb(231,116,115)" d="M 310.139 884.45 C 318.743 883.42 323.709 882.843 332.289 882.974 L 324.675 885.084 C 321.072 885.481 314.019 884.736 310.139 884.45 z"/>
</svg>